<svg id="visual" viewBox="0 0 960 540" width="960" height="540" xmlns="http://www.w3.org/2000/svg" xmlns:xlink="http://www.w3.org/1999/xlink" version="1.1"><path d="M0 360L20 366.7C40 373.3 80 386.7 120 386.3C160 386 200 372 240 366C280 360 320 362 360 364.3C400 366.7 440 369.3 480 373.5C520 377.7 560 383.3 600 383.7C640 384 680 379 720 380C760 381 800 388 840 396C880 404 920 413 940 417.5L960 422L960 541L940 541C920 541 880 541 840 541C800 541 760 541 720 541C680 541 640 541 600 541C560 541 520 541 480 541C440 541 400 541 360 541C320 541 280 541 240 541C200 541 160 541 120 541C80 541 40 541 20 541L0 541Z" fill="#f8fafc"></path><path d="M0 418L20 414.8C40 411.7 80 405.3 120 400C160 394.7 200 390.3 240 389.8C280 389.3 320 392.7 360 392.8C400 393 440 390 480 389.3C520 388.7 560 390.3 600 394.8C640 399.3 680 406.7 720 413.2C760 419.7 800 425.3 840 424C880 422.7 920 414.3 940 410.2L960 406L960 541L940 541C920 541 880 541 840 541C800 541 760 541 720 541C680 541 640 541 600 541C560 541 520 541 480 541C440 541 400 541 360 541C320 541 280 541 240 541C200 541 160 541 120 541C80 541 40 541 20 541L0 541Z" fill="#f3f6fa"></path><path d="M0 440L20 433.2C40 426.3 80 412.7 120 409.7C160 406.7 200 414.3 240 414.2C280 414 320 406 360 403C400 400 440 402 480 405.5C520 409 560 414 600 414C640 414 680 409 720 405.8C760 402.7 800 401.3 840 408.2C880 415 920 430 940 437.5L960 445L960 541L940 541C920 541 880 541 840 541C800 541 760 541 720 541C680 541 640 541 600 541C560 541 520 541 480 541C440 541 400 541 360 541C320 541 280 541 240 541C200 541 160 541 120 541C80 541 40 541 20 541L0 541Z" fill="#eef3f7"></path><path d="M0 446L20 448.3C40 450.7 80 455.3 120 451.7C160 448 200 436 240 429.2C280 422.3 320 420.7 360 425.3C400 430 440 441 480 445.2C520 449.3 560 446.7 600 443.7C640 440.7 680 437.3 720 434.3C760 431.3 800 428.7 840 429.5C880 430.3 920 434.7 940 436.8L960 439L960 541L940 541C920 541 880 541 840 541C800 541 760 541 720 541C680 541 640 541 600 541C560 541 520 541 480 541C440 541 400 541 360 541C320 541 280 541 240 541C200 541 160 541 120 541C80 541 40 541 20 541L0 541Z" fill="#e9eff5"></path><path d="M0 456L20 459.3C40 462.7 80 469.3 120 472.7C160 476 200 476 240 471.7C280 467.3 320 458.7 360 456.8C400 455 440 460 480 462.3C520 464.7 560 464.3 600 467C640 469.7 680 475.3 720 471.7C760 468 800 455 840 448.5C880 442 920 442 940 442L960 442L960 541L940 541C920 541 880 541 840 541C800 541 760 541 720 541C680 541 640 541 600 541C560 541 520 541 480 541C440 541 400 541 360 541C320 541 280 541 240 541C200 541 160 541 120 541C80 541 40 541 20 541L0 541Z" fill="#e4ebf3"></path><path d="M0 493L20 489.8C40 486.7 80 480.3 120 475.7C160 471 200 468 240 470.3C280 472.7 320 480.3 360 485.3C400 490.3 440 492.7 480 489.8C520 487 560 479 600 476C640 473 680 475 720 475.8C760 476.7 800 476.3 840 474C880 471.7 920 467.3 940 465.2L960 463L960 541L940 541C920 541 880 541 840 541C800 541 760 541 720 541C680 541 640 541 600 541C560 541 520 541 480 541C440 541 400 541 360 541C320 541 280 541 240 541C200 541 160 541 120 541C80 541 40 541 20 541L0 541Z" fill="#dfe8f0"></path><path d="M0 496L20 498.5C40 501 80 506 120 508.7C160 511.3 200 511.7 240 507.7C280 503.7 320 495.3 360 493.8C400 492.3 440 497.7 480 497.2C520 496.7 560 490.3 600 488.8C640 487.3 680 490.7 720 491.7C760 492.7 800 491.3 840 489.5C880 487.7 920 485.3 940 484.2L960 483L960 541L940 541C920 541 880 541 840 541C800 541 760 541 720 541C680 541 640 541 600 541C560 541 520 541 480 541C440 541 400 541 360 541C320 541 280 541 240 541C200 541 160 541 120 541C80 541 40 541 20 541L0 541Z" fill="#dae4ee"></path><path d="M0 511L20 510C40 509 80 507 120 508.3C160 509.7 200 514.3 240 515.7C280 517 320 515 360 515.5C400 516 440 519 480 520.5C520 522 560 522 600 519C640 516 680 510 720 510C760 510 800 516 840 516C880 516 920 510 940 507L960 504L960 541L940 541C920 541 880 541 840 541C800 541 760 541 720 541C680 541 640 541 600 541C560 541 520 541 480 541C440 541 400 541 360 541C320 541 280 541 240 541C200 541 160 541 120 541C80 541 40 541 20 541L0 541Z" fill="#d5e1eb"></path></svg>