<svg id="visual" viewBox="0 0 960 540" width="960" height="540" xmlns="http://www.w3.org/2000/svg" xmlns:xlink="http://www.w3.org/1999/xlink" version="1.1"><path d="M0 122L20 129.7C40 137.3 80 152.7 120 159.8C160 167 200 166 240 164.3C280 162.7 320 160.3 360 162.7C400 165 440 172 480 170C520 168 560 157 600 151.5C640 146 680 146 720 142.2C760 138.3 800 130.7 840 131.7C880 132.7 920 142.3 940 147.2L960 152L960 0L940 0C920 0 880 0 840 0C800 0 760 0 720 0C680 0 640 0 600 0C560 0 520 0 480 0C440 0 400 0 360 0C320 0 280 0 240 0C200 0 160 0 120 0C80 0 40 0 20 0L0 0Z" fill="#f8fafc"></path><path d="M0 136L20 131C40 126 80 116 120 115.3C160 114.7 200 123.3 240 124.8C280 126.3 320 120.7 360 121.5C400 122.3 440 129.7 480 131.2C520 132.7 560 128.3 600 130.3C640 132.3 680 140.7 720 142.2C760 143.7 800 138.3 840 131.5C880 124.7 920 116.3 940 112.2L960 108L960 0L940 0C920 0 880 0 840 0C800 0 760 0 720 0C680 0 640 0 600 0C560 0 520 0 480 0C440 0 400 0 360 0C320 0 280 0 240 0C200 0 160 0 120 0C80 0 40 0 20 0L0 0Z" fill="#e1fcff"></path><path d="M0 94L20 91.8C40 89.7 80 85.3 120 86.7C160 88 200 95 240 95.2C280 95.3 320 88.7 360 84.5C400 80.3 440 78.7 480 80.5C520 82.3 560 87.7 600 90.8C640 94 680 95 720 92.2C760 89.3 800 82.7 840 79.5C880 76.3 920 76.7 940 76.8L960 77L960 0L940 0C920 0 880 0 840 0C800 0 760 0 720 0C680 0 640 0 600 0C560 0 520 0 480 0C440 0 400 0 360 0C320 0 280 0 240 0C200 0 160 0 120 0C80 0 40 0 20 0L0 0Z" fill="#c9fefa"></path><path d="M0 61L20 63.2C40 65.3 80 69.7 120 72.3C160 75 200 76 240 73.2C280 70.3 320 63.7 360 60C400 56.3 440 55.7 480 57C520 58.3 560 61.7 600 67C640 72.3 680 79.7 720 82C760 84.3 800 81.7 840 82.8C880 84 920 89 940 91.5L960 94L960 0L940 0C920 0 880 0 840 0C800 0 760 0 720 0C680 0 640 0 600 0C560 0 520 0 480 0C440 0 400 0 360 0C320 0 280 0 240 0C200 0 160 0 120 0C80 0 40 0 20 0L0 0Z" fill="#c4fede"></path><path d="M0 67L20 62.3C40 57.7 80 48.3 120 46.8C160 45.3 200 51.7 240 52.5C280 53.3 320 48.7 360 45.8C400 43 440 42 480 43.8C520 45.7 560 50.3 600 52.2C640 54 680 53 720 53.3C760 53.7 800 55.3 840 53.8C880 52.3 920 47.7 940 45.3L960 43L960 0L940 0C920 0 880 0 840 0C800 0 760 0 720 0C680 0 640 0 600 0C560 0 520 0 480 0C440 0 400 0 360 0C320 0 280 0 240 0C200 0 160 0 120 0C80 0 40 0 20 0L0 0Z" fill="#d9f8b9"></path><path d="M0 29L20 28.8C40 28.7 80 28.3 120 30.2C160 32 200 36 240 36.5C280 37 320 34 360 32.2C400 30.3 440 29.7 480 30.7C520 31.7 560 34.3 600 34.7C640 35 680 33 720 32.2C760 31.3 800 31.7 840 31.5C880 31.3 920 30.7 940 30.3L960 30L960 0L940 0C920 0 880 0 840 0C800 0 760 0 720 0C680 0 640 0 600 0C560 0 520 0 480 0C440 0 400 0 360 0C320 0 280 0 240 0C200 0 160 0 120 0C80 0 40 0 20 0L0 0Z" fill="#ffeb99"></path></svg>