<svg id="visual" viewBox="0 0 960 540" width="960" height="540" xmlns="http://www.w3.org/2000/svg" xmlns:xlink="http://www.w3.org/1999/xlink" version="1.1"><path d="M0 146L20 141.5C40 137 80 128 120 129.5C160 131 200 143 240 149.2C280 155.3 320 155.7 360 150.8C400 146 440 136 480 133.8C520 131.7 560 137.3 600 140.3C640 143.3 680 143.7 720 143C760 142.3 800 140.7 840 145.5C880 150.3 920 161.7 940 167.3L960 173L960 0L940 0C920 0 880 0 840 0C800 0 760 0 720 0C680 0 640 0 600 0C560 0 520 0 480 0C440 0 400 0 360 0C320 0 280 0 240 0C200 0 160 0 120 0C80 0 40 0 20 0L0 0Z" fill="#f8fafc"></path><path d="M0 147L20 145C40 143 80 139 120 138.7C160 138.3 200 141.7 240 137.8C280 134 320 123 360 118.7C400 114.3 440 116.7 480 116.2C520 115.7 560 112.3 600 117.7C640 123 680 137 720 136.7C760 136.3 800 121.7 840 119.8C880 118 920 129 940 134.5L960 140L960 0L940 0C920 0 880 0 840 0C800 0 760 0 720 0C680 0 640 0 600 0C560 0 520 0 480 0C440 0 400 0 360 0C320 0 280 0 240 0C200 0 160 0 120 0C80 0 40 0 20 0L0 0Z" fill="#e1fcff"></path><path d="M0 107L20 107.7C40 108.3 80 109.7 120 108.3C160 107 200 103 240 101.3C280 99.7 320 100.3 360 101.5C400 102.7 440 104.3 480 99.7C520 95 560 84 600 85.5C640 87 680 101 720 101C760 101 800 87 840 88.5C880 90 920 107 940 115.5L960 124L960 0L940 0C920 0 880 0 840 0C800 0 760 0 720 0C680 0 640 0 600 0C560 0 520 0 480 0C440 0 400 0 360 0C320 0 280 0 240 0C200 0 160 0 120 0C80 0 40 0 20 0L0 0Z" fill="#c9fefa"></path><path d="M0 82L20 84.3C40 86.7 80 91.3 120 93.8C160 96.3 200 96.7 240 90.2C280 83.7 320 70.3 360 63.7C400 57 440 57 480 57.2C520 57.3 560 57.7 600 61.3C640 65 680 72 720 74.2C760 76.3 800 73.7 840 75.7C880 77.7 920 84.3 940 87.7L960 91L960 0L940 0C920 0 880 0 840 0C800 0 760 0 720 0C680 0 640 0 600 0C560 0 520 0 480 0C440 0 400 0 360 0C320 0 280 0 240 0C200 0 160 0 120 0C80 0 40 0 20 0L0 0Z" fill="#c4fede"></path><path d="M0 69L20 63.7C40 58.3 80 47.7 120 46C160 44.3 200 51.7 240 54.5C280 57.3 320 55.7 360 55.3C400 55 440 56 480 53.7C520 51.3 560 45.7 600 42.8C640 40 680 40 720 44.7C760 49.3 800 58.7 840 62.3C880 66 920 64 940 63L960 62L960 0L940 0C920 0 880 0 840 0C800 0 760 0 720 0C680 0 640 0 600 0C560 0 520 0 480 0C440 0 400 0 360 0C320 0 280 0 240 0C200 0 160 0 120 0C80 0 40 0 20 0L0 0Z" fill="#d9f8b9"></path><path d="M0 34L20 33.5C40 33 80 32 120 32.3C160 32.7 200 34.3 240 33.8C280 33.3 320 30.7 360 29.5C400 28.3 440 28.7 480 30.3C520 32 560 35 600 33.5C640 32 680 26 720 27.2C760 28.3 800 36.7 840 40C880 43.3 920 41.7 940 40.8L960 40L960 0L940 0C920 0 880 0 840 0C800 0 760 0 720 0C680 0 640 0 600 0C560 0 520 0 480 0C440 0 400 0 360 0C320 0 280 0 240 0C200 0 160 0 120 0C80 0 40 0 20 0L0 0Z" fill="#ffeb99"></path></svg>