<svg id="visual" viewBox="0 0 960 540" width="960" height="540" xmlns="http://www.w3.org/2000/svg" xmlns:xlink="http://www.w3.org/1999/xlink" version="1.1"><path d="M0 111L20 120.2C40 129.3 80 147.7 120 151.3C160 155 200 144 240 142.7C280 141.3 320 149.7 360 148.3C400 147 440 136 480 135.2C520 134.3 560 143.7 600 146.8C640 150 680 147 720 150C760 153 800 162 840 163.5C880 165 920 159 940 156L960 153L960 0L940 0C920 0 880 0 840 0C800 0 760 0 720 0C680 0 640 0 600 0C560 0 520 0 480 0C440 0 400 0 360 0C320 0 280 0 240 0C200 0 160 0 120 0C80 0 40 0 20 0L0 0Z" fill="#f8fafc"></path><path d="M0 99L20 106C40 113 80 127 120 128C160 129 200 117 240 113.3C280 109.7 320 114.3 360 121.5C400 128.7 440 138.3 480 137.2C520 136 560 124 600 120C640 116 680 120 720 119.8C760 119.7 800 115.3 840 118.2C880 121 920 131 940 136L960 141L960 0L940 0C920 0 880 0 840 0C800 0 760 0 720 0C680 0 640 0 600 0C560 0 520 0 480 0C440 0 400 0 360 0C320 0 280 0 240 0C200 0 160 0 120 0C80 0 40 0 20 0L0 0Z" fill="#e1fcff"></path><path d="M0 103L20 101.2C40 99.3 80 95.7 120 90.5C160 85.3 200 78.7 240 79.2C280 79.7 320 87.3 360 94.8C400 102.3 440 109.7 480 107.2C520 104.7 560 92.3 600 86.2C640 80 680 80 720 82.8C760 85.7 800 91.3 840 93.8C880 96.3 920 95.7 940 95.3L960 95L960 0L940 0C920 0 880 0 840 0C800 0 760 0 720 0C680 0 640 0 600 0C560 0 520 0 480 0C440 0 400 0 360 0C320 0 280 0 240 0C200 0 160 0 120 0C80 0 40 0 20 0L0 0Z" fill="#c9fefa"></path><path d="M0 87L20 85C40 83 80 79 120 74.2C160 69.3 200 63.7 240 65.8C280 68 320 78 360 77.5C400 77 440 66 480 65.8C520 65.7 560 76.3 600 77.5C640 78.7 680 70.3 720 67.8C760 65.3 800 68.7 840 72.7C880 76.7 920 81.3 940 83.7L960 86L960 0L940 0C920 0 880 0 840 0C800 0 760 0 720 0C680 0 640 0 600 0C560 0 520 0 480 0C440 0 400 0 360 0C320 0 280 0 240 0C200 0 160 0 120 0C80 0 40 0 20 0L0 0Z" fill="#c4fede"></path><path d="M0 37L20 41.7C40 46.3 80 55.7 120 61.5C160 67.3 200 69.7 240 64.8C280 60 320 48 360 45.5C400 43 440 50 480 52C520 54 560 51 600 53C640 55 680 62 720 65.8C760 69.7 800 70.3 840 64.8C880 59.3 920 47.7 940 41.8L960 36L960 0L940 0C920 0 880 0 840 0C800 0 760 0 720 0C680 0 640 0 600 0C560 0 520 0 480 0C440 0 400 0 360 0C320 0 280 0 240 0C200 0 160 0 120 0C80 0 40 0 20 0L0 0Z" fill="#d9f8b9"></path><path d="M0 44L20 40.8C40 37.7 80 31.3 120 31.2C160 31 200 37 240 36C280 35 320 27 360 24.8C400 22.7 440 26.3 480 27.8C520 29.3 560 28.7 600 27.8C640 27 680 26 720 28.8C760 31.7 800 38.3 840 38.7C880 39 920 33 940 30L960 27L960 0L940 0C920 0 880 0 840 0C800 0 760 0 720 0C680 0 640 0 600 0C560 0 520 0 480 0C440 0 400 0 360 0C320 0 280 0 240 0C200 0 160 0 120 0C80 0 40 0 20 0L0 0Z" fill="#ffeb99"></path></svg>