<svg id="visual" viewBox="0 0 960 540" width="960" height="540" xmlns="http://www.w3.org/2000/svg" xmlns:xlink="http://www.w3.org/1999/xlink" version="1.1"><path d="M0 365L20 370.5C40 376 80 387 120 392.2C160 397.3 200 396.7 240 397.3C280 398 320 400 360 398.5C400 397 440 392 480 388.2C520 384.3 560 381.7 600 384C640 386.3 680 393.7 720 394.8C760 396 800 391 840 385.8C880 380.7 920 375.3 940 372.7L960 370L960 541L940 541C920 541 880 541 840 541C800 541 760 541 720 541C680 541 640 541 600 541C560 541 520 541 480 541C440 541 400 541 360 541C320 541 280 541 240 541C200 541 160 541 120 541C80 541 40 541 20 541L0 541Z" fill="#f8fafc"></path><path d="M0 383L20 391C40 399 80 415 120 418.3C160 421.7 200 412.3 240 406C280 399.7 320 396.3 360 396.7C400 397 440 401 480 407.3C520 413.7 560 422.3 600 419.7C640 417 680 403 720 402.8C760 402.7 800 416.3 840 417.2C880 418 920 406 940 400L960 394L960 541L940 541C920 541 880 541 840 541C800 541 760 541 720 541C680 541 640 541 600 541C560 541 520 541 480 541C440 541 400 541 360 541C320 541 280 541 240 541C200 541 160 541 120 541C80 541 40 541 20 541L0 541Z" fill="#f3f6fa"></path><path d="M0 414L20 418.7C40 423.3 80 432.7 120 431C160 429.3 200 416.7 240 412.5C280 408.3 320 412.7 360 418.3C400 424 440 431 480 433.3C520 435.7 560 433.3 600 427C640 420.7 680 410.3 720 410.3C760 410.3 800 420.7 840 421.8C880 423 920 415 940 411L960 407L960 541L940 541C920 541 880 541 840 541C800 541 760 541 720 541C680 541 640 541 600 541C560 541 520 541 480 541C440 541 400 541 360 541C320 541 280 541 240 541C200 541 160 541 120 541C80 541 40 541 20 541L0 541Z" fill="#eef3f7"></path><path d="M0 456L20 450.3C40 444.7 80 433.3 120 428.3C160 423.3 200 424.7 240 427.5C280 430.3 320 434.7 360 433.7C400 432.7 440 426.3 480 428.7C520 431 560 442 600 444.2C640 446.3 680 439.7 720 434.5C760 429.3 800 425.7 840 428.8C880 432 920 442 940 447L960 452L960 541L940 541C920 541 880 541 840 541C800 541 760 541 720 541C680 541 640 541 600 541C560 541 520 541 480 541C440 541 400 541 360 541C320 541 280 541 240 541C200 541 160 541 120 541C80 541 40 541 20 541L0 541Z" fill="#e9eff5"></path><path d="M0 443L20 446.8C40 450.7 80 458.3 120 461.3C160 464.3 200 462.7 240 459.7C280 456.7 320 452.3 360 455.8C400 459.3 440 470.7 480 475.8C520 481 560 480 600 478.3C640 476.7 680 474.3 720 474.2C760 474 800 476 840 473.3C880 470.7 920 463.3 940 459.7L960 456L960 541L940 541C920 541 880 541 840 541C800 541 760 541 720 541C680 541 640 541 600 541C560 541 520 541 480 541C440 541 400 541 360 541C320 541 280 541 240 541C200 541 160 541 120 541C80 541 40 541 20 541L0 541Z" fill="#e4ebf3"></path><path d="M0 493L20 493.5C40 494 80 495 120 493.2C160 491.3 200 486.7 240 483.2C280 479.7 320 477.3 360 478.3C400 479.3 440 483.7 480 483.2C520 482.7 560 477.3 600 473.3C640 469.3 680 466.7 720 470.2C760 473.7 800 483.3 840 484.8C880 486.3 920 479.7 940 476.3L960 473L960 541L940 541C920 541 880 541 840 541C800 541 760 541 720 541C680 541 640 541 600 541C560 541 520 541 480 541C440 541 400 541 360 541C320 541 280 541 240 541C200 541 160 541 120 541C80 541 40 541 20 541L0 541Z" fill="#dfe8f0"></path><path d="M0 487L20 489.8C40 492.7 80 498.3 120 501.8C160 505.3 200 506.7 240 504.3C280 502 320 496 360 493.5C400 491 440 492 480 492C520 492 560 491 600 489.7C640 488.3 680 486.7 720 485.5C760 484.3 800 483.7 840 487.3C880 491 920 499 940 503L960 507L960 541L940 541C920 541 880 541 840 541C800 541 760 541 720 541C680 541 640 541 600 541C560 541 520 541 480 541C440 541 400 541 360 541C320 541 280 541 240 541C200 541 160 541 120 541C80 541 40 541 20 541L0 541Z" fill="#dae4ee"></path><path d="M0 519L20 518.5C40 518 80 517 120 515.5C160 514 200 512 240 512.7C280 513.3 320 516.7 360 515.8C400 515 440 510 480 507.8C520 505.7 560 506.3 600 506.5C640 506.7 680 506.3 720 507.3C760 508.3 800 510.7 840 512C880 513.3 920 513.7 940 513.8L960 514L960 541L940 541C920 541 880 541 840 541C800 541 760 541 720 541C680 541 640 541 600 541C560 541 520 541 480 541C440 541 400 541 360 541C320 541 280 541 240 541C200 541 160 541 120 541C80 541 40 541 20 541L0 541Z" fill="#d5e1eb"></path></svg>