<svg id="visual" viewBox="0 0 960 540" width="960" height="540" xmlns="http://www.w3.org/2000/svg" xmlns:xlink="http://www.w3.org/1999/xlink" version="1.1"><path d="M0 143L20 140.2C40 137.3 80 131.7 120 127.3C160 123 200 120 240 121.3C280 122.7 320 128.3 360 127.8C400 127.3 440 120.7 480 125.8C520 131 560 148 600 156.5C640 165 680 165 720 161.5C760 158 800 151 840 145.2C880 139.3 920 134.7 940 132.3L960 130L960 0L940 0C920 0 880 0 840 0C800 0 760 0 720 0C680 0 640 0 600 0C560 0 520 0 480 0C440 0 400 0 360 0C320 0 280 0 240 0C200 0 160 0 120 0C80 0 40 0 20 0L0 0Z" fill="#f8fafc"></path><path d="M0 114L20 114.3C40 114.7 80 115.3 120 114.3C160 113.3 200 110.7 240 109.2C280 107.7 320 107.3 360 106.5C400 105.7 440 104.3 480 108.2C520 112 560 121 600 119.8C640 118.7 680 107.3 720 111.2C760 115 800 134 840 138C880 142 920 131 940 125.5L960 120L960 0L940 0C920 0 880 0 840 0C800 0 760 0 720 0C680 0 640 0 600 0C560 0 520 0 480 0C440 0 400 0 360 0C320 0 280 0 240 0C200 0 160 0 120 0C80 0 40 0 20 0L0 0Z" fill="#e1fcff"></path><path d="M0 88L20 87.7C40 87.3 80 86.7 120 88.2C160 89.7 200 93.3 240 99.3C280 105.3 320 113.7 360 112.5C400 111.3 440 100.7 480 94.5C520 88.3 560 86.7 600 92C640 97.3 680 109.7 720 110.3C760 111 800 100 840 96.3C880 92.7 920 96.3 940 98.2L960 100L960 0L940 0C920 0 880 0 840 0C800 0 760 0 720 0C680 0 640 0 600 0C560 0 520 0 480 0C440 0 400 0 360 0C320 0 280 0 240 0C200 0 160 0 120 0C80 0 40 0 20 0L0 0Z" fill="#c9fefa"></path><path d="M0 81L20 78.7C40 76.3 80 71.7 120 71.7C160 71.7 200 76.3 240 75C280 73.7 320 66.3 360 67.3C400 68.3 440 77.7 480 78C520 78.3 560 69.7 600 67.2C640 64.7 680 68.3 720 69C760 69.7 800 67.3 840 68C880 68.7 920 72.3 940 74.2L960 76L960 0L940 0C920 0 880 0 840 0C800 0 760 0 720 0C680 0 640 0 600 0C560 0 520 0 480 0C440 0 400 0 360 0C320 0 280 0 240 0C200 0 160 0 120 0C80 0 40 0 20 0L0 0Z" fill="#c4fede"></path><path d="M0 45L20 49.3C40 53.7 80 62.3 120 61.2C160 60 200 49 240 48.7C280 48.3 320 58.7 360 64C400 69.3 440 69.7 480 67.8C520 66 560 62 600 58.5C640 55 680 52 720 49.3C760 46.7 800 44.3 840 43C880 41.7 920 41.3 940 41.2L960 41L960 0L940 0C920 0 880 0 840 0C800 0 760 0 720 0C680 0 640 0 600 0C560 0 520 0 480 0C440 0 400 0 360 0C320 0 280 0 240 0C200 0 160 0 120 0C80 0 40 0 20 0L0 0Z" fill="#d9f8b9"></path><path d="M0 35L20 34.5C40 34 80 33 120 33.8C160 34.7 200 37.3 240 36.8C280 36.3 320 32.7 360 31.5C400 30.3 440 31.7 480 30.3C520 29 560 25 600 26.8C640 28.7 680 36.3 720 35.8C760 35.3 800 26.7 840 25.8C880 25 920 32 940 35.5L960 39L960 0L940 0C920 0 880 0 840 0C800 0 760 0 720 0C680 0 640 0 600 0C560 0 520 0 480 0C440 0 400 0 360 0C320 0 280 0 240 0C200 0 160 0 120 0C80 0 40 0 20 0L0 0Z" fill="#ffeb99"></path></svg>