<svg id="visual" viewBox="0 0 960 540" width="960" height="540" xmlns="http://www.w3.org/2000/svg" xmlns:xlink="http://www.w3.org/1999/xlink" version="1.1"><path d="M0 399L20 393.3C40 387.7 80 376.3 120 371.7C160 367 200 369 240 378.3C280 387.7 320 404.3 360 403.7C400 403 440 385 480 377.5C520 370 560 373 600 381.2C640 389.3 680 402.7 720 405C760 407.3 800 398.7 840 394.5C880 390.3 920 390.7 940 390.8L960 391L960 541L940 541C920 541 880 541 840 541C800 541 760 541 720 541C680 541 640 541 600 541C560 541 520 541 480 541C440 541 400 541 360 541C320 541 280 541 240 541C200 541 160 541 120 541C80 541 40 541 20 541L0 541Z" fill="#f8fafc"></path><path d="M0 397L20 396.2C40 395.3 80 393.7 120 391.8C160 390 200 388 240 393.5C280 399 320 412 360 413.2C400 414.3 440 403.7 480 400.3C520 397 560 401 600 404.3C640 407.7 680 410.3 720 407C760 403.7 800 394.3 840 388.7C880 383 920 381 940 380L960 379L960 541L940 541C920 541 880 541 840 541C800 541 760 541 720 541C680 541 640 541 600 541C560 541 520 541 480 541C440 541 400 541 360 541C320 541 280 541 240 541C200 541 160 541 120 541C80 541 40 541 20 541L0 541Z" fill="#f3f6fa"></path><path d="M0 419L20 424C40 429 80 439 120 439.7C160 440.3 200 431.7 240 429.3C280 427 320 431 360 428.3C400 425.7 440 416.3 480 411.2C520 406 560 405 600 408.7C640 412.3 680 420.7 720 420.3C760 420 800 411 840 411.3C880 411.7 920 421.3 940 426.2L960 431L960 541L940 541C920 541 880 541 840 541C800 541 760 541 720 541C680 541 640 541 600 541C560 541 520 541 480 541C440 541 400 541 360 541C320 541 280 541 240 541C200 541 160 541 120 541C80 541 40 541 20 541L0 541Z" fill="#eef3f7"></path><path d="M0 440L20 444.2C40 448.3 80 456.7 120 453.3C160 450 200 435 240 431.3C280 427.7 320 435.3 360 437.7C400 440 440 437 480 435.2C520 433.3 560 432.7 600 435.2C640 437.7 680 443.3 720 448.7C760 454 800 459 840 459.8C880 460.7 920 457.3 940 455.7L960 454L960 541L940 541C920 541 880 541 840 541C800 541 760 541 720 541C680 541 640 541 600 541C560 541 520 541 480 541C440 541 400 541 360 541C320 541 280 541 240 541C200 541 160 541 120 541C80 541 40 541 20 541L0 541Z" fill="#e9eff5"></path><path d="M0 474L20 470.3C40 466.7 80 459.3 120 456.8C160 454.3 200 456.7 240 461.5C280 466.3 320 473.7 360 476.2C400 478.7 440 476.3 480 470.2C520 464 560 454 600 448.8C640 443.7 680 443.3 720 443.5C760 443.7 800 444.3 840 447C880 449.7 920 454.3 940 456.7L960 459L960 541L940 541C920 541 880 541 840 541C800 541 760 541 720 541C680 541 640 541 600 541C560 541 520 541 480 541C440 541 400 541 360 541C320 541 280 541 240 541C200 541 160 541 120 541C80 541 40 541 20 541L0 541Z" fill="#e4ebf3"></path><path d="M0 472L20 474.3C40 476.7 80 481.3 120 485.2C160 489 200 492 240 489.2C280 486.3 320 477.7 360 474.7C400 471.7 440 474.3 480 479C520 483.7 560 490.3 600 492.8C640 495.3 680 493.7 720 489.7C760 485.7 800 479.3 840 477.5C880 475.7 920 478.3 940 479.7L960 481L960 541L940 541C920 541 880 541 840 541C800 541 760 541 720 541C680 541 640 541 600 541C560 541 520 541 480 541C440 541 400 541 360 541C320 541 280 541 240 541C200 541 160 541 120 541C80 541 40 541 20 541L0 541Z" fill="#dfe8f0"></path><path d="M0 499L20 499C40 499 80 499 120 499.2C160 499.3 200 499.7 240 500C280 500.3 320 500.7 360 501.5C400 502.3 440 503.7 480 500.5C520 497.3 560 489.7 600 488.5C640 487.3 680 492.7 720 495.5C760 498.3 800 498.7 840 496.5C880 494.3 920 489.7 940 487.3L960 485L960 541L940 541C920 541 880 541 840 541C800 541 760 541 720 541C680 541 640 541 600 541C560 541 520 541 480 541C440 541 400 541 360 541C320 541 280 541 240 541C200 541 160 541 120 541C80 541 40 541 20 541L0 541Z" fill="#dae4ee"></path><path d="M0 527L20 524.5C40 522 80 517 120 513.5C160 510 200 508 240 507.8C280 507.7 320 509.3 360 510C400 510.7 440 510.3 480 510.7C520 511 560 512 600 514C640 516 680 519 720 519.8C760 520.7 800 519.3 840 516.5C880 513.7 920 509.3 940 507.2L960 505L960 541L940 541C920 541 880 541 840 541C800 541 760 541 720 541C680 541 640 541 600 541C560 541 520 541 480 541C440 541 400 541 360 541C320 541 280 541 240 541C200 541 160 541 120 541C80 541 40 541 20 541L0 541Z" fill="#d5e1eb"></path></svg>