<svg id="visual" viewBox="0 0 960 540" width="960" height="540" xmlns="http://www.w3.org/2000/svg" xmlns:xlink="http://www.w3.org/1999/xlink" version="1.1"><path d="M0 415L20 405.7C40 396.3 80 377.7 120 375C160 372.3 200 385.7 240 393.5C280 401.3 320 403.7 360 406.3C400 409 440 412 480 406.5C520 401 560 387 600 386.5C640 386 680 399 720 401.2C760 403.3 800 394.7 840 386C880 377.3 920 368.7 940 364.3L960 360L960 541L940 541C920 541 880 541 840 541C800 541 760 541 720 541C680 541 640 541 600 541C560 541 520 541 480 541C440 541 400 541 360 541C320 541 280 541 240 541C200 541 160 541 120 541C80 541 40 541 20 541L0 541Z" fill="#f8fafc"></path><path d="M0 422L20 418C40 414 80 406 120 406.2C160 406.3 200 414.7 240 413.5C280 412.3 320 401.7 360 398C400 394.3 440 397.7 480 401C520 404.3 560 407.7 600 407.2C640 406.7 680 402.3 720 401.3C760 400.3 800 402.7 840 403.7C880 404.7 920 404.3 940 404.2L960 404L960 541L940 541C920 541 880 541 840 541C800 541 760 541 720 541C680 541 640 541 600 541C560 541 520 541 480 541C440 541 400 541 360 541C320 541 280 541 240 541C200 541 160 541 120 541C80 541 40 541 20 541L0 541Z" fill="#f3f6fa"></path><path d="M0 422L20 421.2C40 420.3 80 418.7 120 417.3C160 416 200 415 240 420.3C280 425.7 320 437.3 360 439.7C400 442 440 435 480 433.8C520 432.7 560 437.3 600 434C640 430.7 680 419.3 720 419.2C760 419 800 430 840 433.7C880 437.3 920 433.7 940 431.8L960 430L960 541L940 541C920 541 880 541 840 541C800 541 760 541 720 541C680 541 640 541 600 541C560 541 520 541 480 541C440 541 400 541 360 541C320 541 280 541 240 541C200 541 160 541 120 541C80 541 40 541 20 541L0 541Z" fill="#eef3f7"></path><path d="M0 436L20 439.8C40 443.7 80 451.3 120 453.2C160 455 200 451 240 448.3C280 445.7 320 444.3 360 447.7C400 451 440 459 480 461C520 463 560 459 600 456.8C640 454.7 680 454.3 720 452.5C760 450.7 800 447.3 840 447.5C880 447.7 920 451.3 940 453.2L960 455L960 541L940 541C920 541 880 541 840 541C800 541 760 541 720 541C680 541 640 541 600 541C560 541 520 541 480 541C440 541 400 541 360 541C320 541 280 541 240 541C200 541 160 541 120 541C80 541 40 541 20 541L0 541Z" fill="#e9eff5"></path><path d="M0 441L20 442.3C40 443.7 80 446.3 120 447.2C160 448 200 447 240 446.7C280 446.3 320 446.7 360 452.3C400 458 440 469 480 474.2C520 479.3 560 478.7 600 477.3C640 476 680 474 720 468.2C760 462.3 800 452.7 840 450.5C880 448.3 920 453.7 940 456.3L960 459L960 541L940 541C920 541 880 541 840 541C800 541 760 541 720 541C680 541 640 541 600 541C560 541 520 541 480 541C440 541 400 541 360 541C320 541 280 541 240 541C200 541 160 541 120 541C80 541 40 541 20 541L0 541Z" fill="#e4ebf3"></path><path d="M0 472L20 471.7C40 471.3 80 470.7 120 471.8C160 473 200 476 240 476.7C280 477.3 320 475.7 360 473.5C400 471.3 440 468.7 480 468.8C520 469 560 472 600 475.5C640 479 680 483 720 482.2C760 481.3 800 475.7 840 473.3C880 471 920 472 940 472.5L960 473L960 541L940 541C920 541 880 541 840 541C800 541 760 541 720 541C680 541 640 541 600 541C560 541 520 541 480 541C440 541 400 541 360 541C320 541 280 541 240 541C200 541 160 541 120 541C80 541 40 541 20 541L0 541Z" fill="#dfe8f0"></path><path d="M0 509L20 508.2C40 507.3 80 505.7 120 504.8C160 504 200 504 240 503.5C280 503 320 502 360 498.7C400 495.3 440 489.7 480 489.7C520 489.7 560 495.3 600 499.3C640 503.3 680 505.7 720 502.7C760 499.7 800 491.3 840 487.5C880 483.7 920 484.3 940 484.7L960 485L960 541L940 541C920 541 880 541 840 541C800 541 760 541 720 541C680 541 640 541 600 541C560 541 520 541 480 541C440 541 400 541 360 541C320 541 280 541 240 541C200 541 160 541 120 541C80 541 40 541 20 541L0 541Z" fill="#dae4ee"></path><path d="M0 520L20 517.7C40 515.3 80 510.7 120 508C160 505.3 200 504.7 240 506.8C280 509 320 514 360 515.7C400 517.3 440 515.7 480 513.8C520 512 560 510 600 508.2C640 506.3 680 504.7 720 505.8C760 507 800 511 840 514.2C880 517.3 920 519.7 940 520.8L960 522L960 541L940 541C920 541 880 541 840 541C800 541 760 541 720 541C680 541 640 541 600 541C560 541 520 541 480 541C440 541 400 541 360 541C320 541 280 541 240 541C200 541 160 541 120 541C80 541 40 541 20 541L0 541Z" fill="#d5e1eb"></path></svg>