<svg id="visual" viewBox="0 0 960 540" width="960" height="540" xmlns="http://www.w3.org/2000/svg" xmlns:xlink="http://www.w3.org/1999/xlink" version="1.1"><path d="M0 190L10 214.7C20 239.3 40 288.7 60 308.3C80 328 100 318 120 297.8C140 277.7 160 247.3 180 250C200 252.7 220 288.3 240 282.8C260 277.3 280 230.7 300 210.2C320 189.7 340 195.3 360 200.8C380 206.3 400 211.7 420 238.8C440 266 460 315 480 319.5C500 324 520 284 540 265.2C560 246.3 580 248.7 600 244C620 239.3 640 227.7 660 246.5C680 265.3 700 314.7 720 306.3C740 298 760 232 780 231.8C800 231.7 820 297.3 840 309.7C860 322 880 281 900 275.5C920 270 940 300 950 315L960 330" fill="none" stroke="#96f7d2" stroke-width="40" stroke-linecap="round" stroke-linejoin="miter"></path></svg>