<svg id="visual" viewBox="0 0 960 540" width="960" height="540" xmlns="http://www.w3.org/2000/svg" xmlns:xlink="http://www.w3.org/1999/xlink" version="1.1"><g stroke-width="1" stroke-linejoin="bevel"><path d="M461 296L386 284L460 370Z" fill="#f7bd96" stroke="#f7bd96"></path><path d="M386 284L355 384L460 370Z" fill="#ddd694" stroke="#ddd694"></path><path d="M355 384L457 436L460 370Z" fill="#ddd694" stroke="#ddd694"></path><path d="M386 284L288 341L355 384Z" fill="#edc991" stroke="#edc991"></path><path d="M396 177L299 261L386 284Z" fill="#96f7d2" stroke="#96f7d2"></path><path d="M386 284L299 261L288 341Z" fill="#96f7d2" stroke="#96f7d2"></path><path d="M261 420L354 455L355 384Z" fill="#c8e2a0" stroke="#c8e2a0"></path><path d="M355 384L354 455L457 436Z" fill="#bde8aa" stroke="#bde8aa"></path><path d="M589 463L573 333L460 370Z" fill="#e5cf91" stroke="#e5cf91"></path><path d="M460 370L573 333L461 296Z" fill="#bde8aa" stroke="#bde8aa"></path><path d="M499 189L396 177L461 296Z" fill="#f3c393" stroke="#f3c393"></path><path d="M461 296L396 177L386 284Z" fill="#e5cf91" stroke="#e5cf91"></path><path d="M597 278L499 189L461 296Z" fill="#ddd694" stroke="#ddd694"></path><path d="M204 388L261 420L288 341Z" fill="#c8e2a0" stroke="#c8e2a0"></path><path d="M288 341L261 420L355 384Z" fill="#a3f2c3" stroke="#a3f2c3"></path><path d="M573 333L597 278L461 296Z" fill="#f7bd96" stroke="#f7bd96"></path><path d="M354 455L414 540L457 436Z" fill="#bde8aa" stroke="#bde8aa"></path><path d="M457 436L589 463L460 370Z" fill="#f3c393" stroke="#f3c393"></path><path d="M320 540L414 540L354 455Z" fill="#a3f2c3" stroke="#a3f2c3"></path><path d="M313 111L287 161L396 177Z" fill="#bde8aa" stroke="#bde8aa"></path><path d="M396 177L287 161L299 261Z" fill="#e5cf91" stroke="#e5cf91"></path><path d="M163 293L204 388L288 341Z" fill="#c8e2a0" stroke="#c8e2a0"></path><path d="M597 278L561 173L499 189Z" fill="#c8e2a0" stroke="#c8e2a0"></path><path d="M499 189L476 118L396 177Z" fill="#c8e2a0" stroke="#c8e2a0"></path><path d="M496 540L589 463L457 436Z" fill="#a3f2c3" stroke="#a3f2c3"></path><path d="M669 371L661 274L597 278Z" fill="#ddd694" stroke="#ddd694"></path><path d="M163 293L288 341L299 261Z" fill="#a3f2c3" stroke="#a3f2c3"></path><path d="M261 420L320 540L354 455Z" fill="#e5cf91" stroke="#e5cf91"></path><path d="M414 540L496 540L457 436Z" fill="#f7bd96" stroke="#f7bd96"></path><path d="M561 173L476 118L499 189Z" fill="#d3dc99" stroke="#d3dc99"></path><path d="M219 540L320 540L261 420Z" fill="#f7bd96" stroke="#f7bd96"></path><path d="M357 78L313 111L396 177Z" fill="#c8e2a0" stroke="#c8e2a0"></path><path d="M669 371L597 278L573 333Z" fill="#edc991" stroke="#edc991"></path><path d="M597 278L648 151L561 173Z" fill="#a3f2c3" stroke="#a3f2c3"></path><path d="M589 463L669 371L573 333Z" fill="#c8e2a0" stroke="#c8e2a0"></path><path d="M313 111L219 171L287 161Z" fill="#f3c393" stroke="#f3c393"></path><path d="M287 161L219 171L299 261Z" fill="#96f7d2" stroke="#96f7d2"></path><path d="M219 171L163 293L299 261Z" fill="#e5cf91" stroke="#e5cf91"></path><path d="M313 111L171 114L219 171Z" fill="#b0edb6" stroke="#b0edb6"></path><path d="M476 118L357 78L396 177Z" fill="#f7bd96" stroke="#f7bd96"></path><path d="M648 151L569 113L561 173Z" fill="#c8e2a0" stroke="#c8e2a0"></path><path d="M561 173L569 113L476 118Z" fill="#b0edb6" stroke="#b0edb6"></path><path d="M476 118L381 0L357 78Z" fill="#f7bd96" stroke="#f7bd96"></path><path d="M496 540L592 540L589 463Z" fill="#f3c393" stroke="#f3c393"></path><path d="M589 463L699 474L669 371Z" fill="#e5cf91" stroke="#e5cf91"></path><path d="M165 475L219 540L261 420Z" fill="#e5cf91" stroke="#e5cf91"></path><path d="M165 475L261 420L204 388Z" fill="#b0edb6" stroke="#b0edb6"></path><path d="M76 434L165 475L204 388Z" fill="#a3f2c3" stroke="#a3f2c3"></path><path d="M661 274L648 151L597 278Z" fill="#a3f2c3" stroke="#a3f2c3"></path><path d="M89 248L121 331L163 293Z" fill="#c8e2a0" stroke="#c8e2a0"></path><path d="M163 293L121 331L204 388Z" fill="#d3dc99" stroke="#d3dc99"></path><path d="M687 540L699 474L589 463Z" fill="#edc991" stroke="#edc991"></path><path d="M769 369L749 253L661 274Z" fill="#e5cf91" stroke="#e5cf91"></path><path d="M661 274L749 194L648 151Z" fill="#c8e2a0" stroke="#c8e2a0"></path><path d="M274 0L171 114L313 111Z" fill="#f7bd96" stroke="#f7bd96"></path><path d="M219 171L89 248L163 293Z" fill="#f3c393" stroke="#f3c393"></path><path d="M508 0L476 118L569 113Z" fill="#b0edb6" stroke="#b0edb6"></path><path d="M508 0L381 0L476 118Z" fill="#ddd694" stroke="#ddd694"></path><path d="M357 78L274 0L313 111Z" fill="#b0edb6" stroke="#b0edb6"></path><path d="M84 153L89 248L219 171Z" fill="#edc991" stroke="#edc991"></path><path d="M121 331L76 434L204 388Z" fill="#b0edb6" stroke="#b0edb6"></path><path d="M592 540L687 540L589 463Z" fill="#c8e2a0" stroke="#c8e2a0"></path><path d="M769 369L669 371L760 453Z" fill="#a3f2c3" stroke="#a3f2c3"></path><path d="M769 369L661 274L669 371Z" fill="#edc991" stroke="#edc991"></path><path d="M573 0L508 0L569 113Z" fill="#edc991" stroke="#edc991"></path><path d="M701 119L569 113L648 151Z" fill="#d3dc99" stroke="#d3dc99"></path><path d="M760 453L669 371L699 474Z" fill="#ddd694" stroke="#ddd694"></path><path d="M749 194L701 119L648 151Z" fill="#e5cf91" stroke="#e5cf91"></path><path d="M0 377L76 434L121 331Z" fill="#f3c393" stroke="#f3c393"></path><path d="M165 475L102 540L219 540Z" fill="#d3dc99" stroke="#d3dc99"></path><path d="M749 253L749 194L661 274Z" fill="#edc991" stroke="#edc991"></path><path d="M852 197L749 194L749 253Z" fill="#bde8aa" stroke="#bde8aa"></path><path d="M381 0L274 0L357 78Z" fill="#96f7d2" stroke="#96f7d2"></path><path d="M759 540L760 453L699 474Z" fill="#f3c393" stroke="#f3c393"></path><path d="M670 0L573 0L569 113Z" fill="#d3dc99" stroke="#d3dc99"></path><path d="M171 114L84 153L219 171Z" fill="#edc991" stroke="#edc991"></path><path d="M92 0L110 121L171 114Z" fill="#bde8aa" stroke="#bde8aa"></path><path d="M76 434L102 540L165 475Z" fill="#a3f2c3" stroke="#a3f2c3"></path><path d="M110 121L84 153L171 114Z" fill="#f7bd96" stroke="#f7bd96"></path><path d="M0 279L0 377L121 331Z" fill="#d3dc99" stroke="#d3dc99"></path><path d="M687 540L759 540L699 474Z" fill="#a3f2c3" stroke="#a3f2c3"></path><path d="M760 453L837 450L769 369Z" fill="#f7bd96" stroke="#f7bd96"></path><path d="M749 194L740 87L701 119Z" fill="#e5cf91" stroke="#e5cf91"></path><path d="M701 119L670 0L569 113Z" fill="#c8e2a0" stroke="#c8e2a0"></path><path d="M852 197L740 87L749 194Z" fill="#e5cf91" stroke="#e5cf91"></path><path d="M274 0L176 0L171 114Z" fill="#edc991" stroke="#edc991"></path><path d="M0 86L0 210L84 153Z" fill="#e5cf91" stroke="#e5cf91"></path><path d="M740 87L670 0L701 119Z" fill="#ddd694" stroke="#ddd694"></path><path d="M0 279L121 331L89 248Z" fill="#f3c393" stroke="#f3c393"></path><path d="M76 434L0 540L102 540Z" fill="#edc991" stroke="#edc991"></path><path d="M0 210L89 248L84 153Z" fill="#a3f2c3" stroke="#a3f2c3"></path><path d="M0 210L0 279L89 248Z" fill="#d3dc99" stroke="#d3dc99"></path><path d="M0 377L0 428L76 434Z" fill="#b0edb6" stroke="#b0edb6"></path><path d="M0 86L84 153L110 121Z" fill="#f7bd96" stroke="#f7bd96"></path><path d="M759 540L837 450L760 453Z" fill="#ddd694" stroke="#ddd694"></path><path d="M769 369L863 243L749 253Z" fill="#bde8aa" stroke="#bde8aa"></path><path d="M892 342L863 243L769 369Z" fill="#b0edb6" stroke="#b0edb6"></path><path d="M863 243L852 197L749 253Z" fill="#b0edb6" stroke="#b0edb6"></path><path d="M740 87L794 0L670 0Z" fill="#ddd694" stroke="#ddd694"></path><path d="M176 0L92 0L171 114Z" fill="#96f7d2" stroke="#96f7d2"></path><path d="M0 428L0 540L76 434Z" fill="#f7bd96" stroke="#f7bd96"></path><path d="M837 450L892 342L769 369Z" fill="#f3c393" stroke="#f3c393"></path><path d="M960 173L868 74L852 197Z" fill="#f7bd96" stroke="#f7bd96"></path><path d="M759 540L852 540L837 450Z" fill="#bde8aa" stroke="#bde8aa"></path><path d="M837 450L960 373L892 342Z" fill="#96f7d2" stroke="#96f7d2"></path><path d="M92 0L0 86L110 121Z" fill="#d3dc99" stroke="#d3dc99"></path><path d="M868 74L794 0L740 87Z" fill="#bde8aa" stroke="#bde8aa"></path><path d="M960 173L852 197L863 243Z" fill="#f7bd96" stroke="#f7bd96"></path><path d="M852 197L868 74L740 87Z" fill="#a3f2c3" stroke="#a3f2c3"></path><path d="M92 0L0 0L0 86Z" fill="#ddd694" stroke="#ddd694"></path><path d="M868 74L835 0L794 0Z" fill="#f7bd96" stroke="#f7bd96"></path><path d="M960 460L960 373L837 450Z" fill="#e5cf91" stroke="#e5cf91"></path><path d="M892 342L960 247L863 243Z" fill="#a3f2c3" stroke="#a3f2c3"></path><path d="M960 373L960 247L892 342Z" fill="#a3f2c3" stroke="#a3f2c3"></path><path d="M868 74L960 0L835 0Z" fill="#bde8aa" stroke="#bde8aa"></path><path d="M852 540L960 460L837 450Z" fill="#e5cf91" stroke="#e5cf91"></path><path d="M960 247L960 173L863 243Z" fill="#c8e2a0" stroke="#c8e2a0"></path><path d="M852 540L960 540L960 460Z" fill="#e5cf91" stroke="#e5cf91"></path><path d="M960 173L960 96L868 74Z" fill="#ddd694" stroke="#ddd694"></path><path d="M960 96L960 0L868 74Z" fill="#a3f2c3" stroke="#a3f2c3"></path></g></svg>