<svg id="visual" viewBox="0 0 960 540" width="960" height="540" xmlns="http://www.w3.org/2000/svg" xmlns:xlink="http://www.w3.org/1999/xlink" version="1.1"><g stroke-width="1" stroke-linejoin="bevel"><path d="M437.7 242L537.3 161L425.7 205Z" fill="#faf6e5" stroke="#faf6e5"></path><path d="M437.7 242L568.3 246L537.3 161Z" fill="#faf6e5" stroke="#faf6e5"></path><path d="M537.3 161L402.7 118L425.7 205Z" fill="#f1edda" stroke="#f1edda"></path><path d="M402.7 118L355 176L425.7 205Z" fill="#e8e4d0" stroke="#e8e4d0"></path><path d="M425.7 205L355 176L437.7 242Z" fill="#fefbea" stroke="#fefbea"></path><path d="M665 105L548.3 78L537.3 161Z" fill="#f1edda" stroke="#f1edda"></path><path d="M537.3 161L548.3 78L402.7 118Z" fill="#fcf9e7" stroke="#fcf9e7"></path><path d="M603 399L624 264L568.3 246Z" fill="#f5f1e0" stroke="#f5f1e0"></path><path d="M568.3 246L639 219L537.3 161Z" fill="#faf6e5" stroke="#faf6e5"></path><path d="M624 264L639 219L568.3 246Z" fill="#f1edda" stroke="#f1edda"></path><path d="M343 361L456.7 378L437.7 242Z" fill="#fefbea" stroke="#fefbea"></path><path d="M437.7 242L516.3 385L568.3 246Z" fill="#f3efdd" stroke="#f3efdd"></path><path d="M456.7 378L516.3 385L437.7 242Z" fill="#e8e4d0" stroke="#e8e4d0"></path><path d="M639 219L665 105L537.3 161Z" fill="#fcf9e7" stroke="#fcf9e7"></path><path d="M663 0L534.3 0L548.3 78Z" fill="#fefbea" stroke="#fefbea"></path><path d="M548.3 78L392.7 0L402.7 118Z" fill="#e8e4d0" stroke="#e8e4d0"></path><path d="M280 262L343 361L437.7 242Z" fill="#faf6e5" stroke="#faf6e5"></path><path d="M402.7 118L319 73L355 176Z" fill="#fefbea" stroke="#fefbea"></path><path d="M355 176L280 262L437.7 242Z" fill="#ece8d5" stroke="#ece8d5"></path><path d="M392.7 0L319 73L402.7 118Z" fill="#f3efdd" stroke="#f3efdd"></path><path d="M247.3 242L280 262L355 176Z" fill="#f5f1e0" stroke="#f5f1e0"></path><path d="M456.7 378L548.3 418L516.3 385Z" fill="#f3efdd" stroke="#f3efdd"></path><path d="M516.3 385L603 399L568.3 246Z" fill="#f3efdd" stroke="#f3efdd"></path><path d="M505.3 540L548.3 418L456.7 378Z" fill="#f7f4e2" stroke="#f7f4e2"></path><path d="M548.3 418L603 399L516.3 385Z" fill="#ece8d5" stroke="#ece8d5"></path><path d="M624 264L711.7 250L639 219Z" fill="#f1edda" stroke="#f1edda"></path><path d="M639 219L723.7 149L665 105Z" fill="#f1edda" stroke="#f1edda"></path><path d="M766.7 321L711.7 250L624 264Z" fill="#efebd8" stroke="#efebd8"></path><path d="M534.3 0L392.7 0L548.3 78Z" fill="#eae6d3" stroke="#eae6d3"></path><path d="M343 361L393.7 411L456.7 378Z" fill="#f5f1e0" stroke="#f5f1e0"></path><path d="M711.7 250L723.7 149L639 219Z" fill="#eae6d3" stroke="#eae6d3"></path><path d="M665 105L663 0L548.3 78Z" fill="#faf6e5" stroke="#faf6e5"></path><path d="M247.3 88L247.3 242L355 176Z" fill="#f7f4e2" stroke="#f7f4e2"></path><path d="M213.3 361L300 425L343 361Z" fill="#eae6d3" stroke="#eae6d3"></path><path d="M392.7 0L325 0L319 73Z" fill="#e8e4d0" stroke="#e8e4d0"></path><path d="M319 73L247.3 88L355 176Z" fill="#f1edda" stroke="#f1edda"></path><path d="M773.7 0L663 0L665 105Z" fill="#f7f4e2" stroke="#f7f4e2"></path><path d="M225.3 0L247.3 88L319 73Z" fill="#e8e4d0" stroke="#e8e4d0"></path><path d="M213.3 361L343 361L280 262Z" fill="#ece8d5" stroke="#ece8d5"></path><path d="M343 361L300 425L393.7 411Z" fill="#faf6e5" stroke="#faf6e5"></path><path d="M505.3 540L622 479L548.3 418Z" fill="#f7f4e2" stroke="#f7f4e2"></path><path d="M853.3 169L777.7 123L723.7 149Z" fill="#eae6d3" stroke="#eae6d3"></path><path d="M723.7 149L777.7 123L665 105Z" fill="#e8e4d0" stroke="#e8e4d0"></path><path d="M603 399L766.7 321L624 264Z" fill="#e8e4d0" stroke="#e8e4d0"></path><path d="M711.7 250L853.3 169L723.7 149Z" fill="#fefbea" stroke="#fefbea"></path><path d="M505.3 540L456.7 378L393.7 411Z" fill="#f5f1e0" stroke="#f5f1e0"></path><path d="M548.3 418L622 479L603 399Z" fill="#ece8d5" stroke="#ece8d5"></path><path d="M603 399L751.7 430L766.7 321Z" fill="#efebd8" stroke="#efebd8"></path><path d="M247.3 88L177.3 197L247.3 242Z" fill="#f3efdd" stroke="#f3efdd"></path><path d="M247.3 242L213.3 361L280 262Z" fill="#eae6d3" stroke="#eae6d3"></path><path d="M108.7 274L213.3 361L247.3 242Z" fill="#fcf9e7" stroke="#fcf9e7"></path><path d="M247.3 88L76.7 129L177.3 197Z" fill="#f1edda" stroke="#f1edda"></path><path d="M325 0L225.3 0L319 73Z" fill="#f3efdd" stroke="#f3efdd"></path><path d="M397.7 540L505.3 540L393.7 411Z" fill="#f3efdd" stroke="#f3efdd"></path><path d="M760.7 540L751.7 430L622 479Z" fill="#f3efdd" stroke="#f3efdd"></path><path d="M622 479L751.7 430L603 399Z" fill="#f7f4e2" stroke="#f7f4e2"></path><path d="M313 540L397.7 540L300 425Z" fill="#eae6d3" stroke="#eae6d3"></path><path d="M300 425L397.7 540L393.7 411Z" fill="#ece8d5" stroke="#ece8d5"></path><path d="M777.7 123L773.7 0L665 105Z" fill="#f7f4e2" stroke="#f7f4e2"></path><path d="M505.3 540L600 540L622 479Z" fill="#fcf9e7" stroke="#fcf9e7"></path><path d="M766.7 321L843.3 296L711.7 250Z" fill="#efebd8" stroke="#efebd8"></path><path d="M777.7 123L822.3 0L773.7 0Z" fill="#eae6d3" stroke="#eae6d3"></path><path d="M884.3 378L843.3 296L766.7 321Z" fill="#f1edda" stroke="#f1edda"></path><path d="M843.3 296L853.3 169L711.7 250Z" fill="#fefbea" stroke="#fefbea"></path><path d="M89.7 372L190.3 428L213.3 361Z" fill="#fcf9e7" stroke="#fcf9e7"></path><path d="M213.3 361L190.3 428L300 425Z" fill="#e8e4d0" stroke="#e8e4d0"></path><path d="M853.3 169L852.3 104L777.7 123Z" fill="#e8e4d0" stroke="#e8e4d0"></path><path d="M200.3 540L313 540L300 425Z" fill="#faf6e5" stroke="#faf6e5"></path><path d="M177.3 197L108.7 274L247.3 242Z" fill="#f7f4e2" stroke="#f7f4e2"></path><path d="M68.7 143L108.7 274L177.3 197Z" fill="#e8e4d0" stroke="#e8e4d0"></path><path d="M852.3 104L822.3 0L777.7 123Z" fill="#f5f1e0" stroke="#f5f1e0"></path><path d="M760.7 540L828.3 428L751.7 430Z" fill="#f5f1e0" stroke="#f5f1e0"></path><path d="M751.7 430L828.3 428L766.7 321Z" fill="#ece8d5" stroke="#ece8d5"></path><path d="M98.7 0L76.7 129L247.3 88Z" fill="#f1edda" stroke="#f1edda"></path><path d="M76.7 129L68.7 143L177.3 197Z" fill="#fcf9e7" stroke="#fcf9e7"></path><path d="M828.3 428L884.3 378L766.7 321Z" fill="#faf6e5" stroke="#faf6e5"></path><path d="M843.3 296L960 192L853.3 169Z" fill="#ece8d5" stroke="#ece8d5"></path><path d="M853.3 169L960 118L852.3 104Z" fill="#f3efdd" stroke="#f3efdd"></path><path d="M600 540L760.7 540L622 479Z" fill="#fefbea" stroke="#fefbea"></path><path d="M828.3 428L960 413L884.3 378Z" fill="#ece8d5" stroke="#ece8d5"></path><path d="M0 306L89.7 372L108.7 274Z" fill="#f7f4e2" stroke="#f7f4e2"></path><path d="M108.7 274L89.7 372L213.3 361Z" fill="#faf6e5" stroke="#faf6e5"></path><path d="M190.3 428L200.3 540L300 425Z" fill="#f7f4e2" stroke="#f7f4e2"></path><path d="M0 123L0 145L68.7 143Z" fill="#fefbea" stroke="#fefbea"></path><path d="M225.3 0L98.7 0L247.3 88Z" fill="#efebd8" stroke="#efebd8"></path><path d="M125.7 540L200.3 540L190.3 428Z" fill="#fcf9e7" stroke="#fcf9e7"></path><path d="M0 387L92.7 451L89.7 372Z" fill="#fefbea" stroke="#fefbea"></path><path d="M89.7 372L92.7 451L190.3 428Z" fill="#fefbea" stroke="#fefbea"></path><path d="M960 306L960 192L843.3 296Z" fill="#f1edda" stroke="#f1edda"></path><path d="M852.3 104L960 0L822.3 0Z" fill="#e8e4d0" stroke="#e8e4d0"></path><path d="M960 192L960 118L853.3 169Z" fill="#f5f1e0" stroke="#f5f1e0"></path><path d="M884.3 378L960 306L843.3 296Z" fill="#f5f1e0" stroke="#f5f1e0"></path><path d="M960 360L960 306L884.3 378Z" fill="#f5f1e0" stroke="#f5f1e0"></path><path d="M760.7 540L841.3 540L828.3 428Z" fill="#f7f4e2" stroke="#f7f4e2"></path><path d="M0 123L68.7 143L76.7 129Z" fill="#e8e4d0" stroke="#e8e4d0"></path><path d="M68.7 143L0 145L108.7 274Z" fill="#e8e4d0" stroke="#e8e4d0"></path><path d="M960 413L960 360L884.3 378Z" fill="#ece8d5" stroke="#ece8d5"></path><path d="M92.7 451L125.7 540L190.3 428Z" fill="#fefbea" stroke="#fefbea"></path><path d="M0 0L0 123L76.7 129Z" fill="#e8e4d0" stroke="#e8e4d0"></path><path d="M0 145L0 306L108.7 274Z" fill="#ece8d5" stroke="#ece8d5"></path><path d="M92.7 451L0 540L125.7 540Z" fill="#f3efdd" stroke="#f3efdd"></path><path d="M960 118L960 0L852.3 104Z" fill="#f5f1e0" stroke="#f5f1e0"></path><path d="M841.3 540L960 413L828.3 428Z" fill="#eae6d3" stroke="#eae6d3"></path><path d="M0 306L0 387L89.7 372Z" fill="#efebd8" stroke="#efebd8"></path><path d="M98.7 0L0 0L76.7 129Z" fill="#f1edda" stroke="#f1edda"></path><path d="M0 387L0 483L92.7 451Z" fill="#f3efdd" stroke="#f3efdd"></path><path d="M841.3 540L960 540L960 413Z" fill="#fcf9e7" stroke="#fcf9e7"></path><path d="M0 483L0 540L92.7 451Z" fill="#fcf9e7" stroke="#fcf9e7"></path></g></svg>