<svg id="visual" viewBox="0 0 960 540" width="960" height="540" xmlns="http://www.w3.org/2000/svg" xmlns:xlink="http://www.w3.org/1999/xlink" version="1.1"><path d="M0 139L20 144.7C40 150.3 80 161.7 120 166.3C160 171 200 169 240 159.7C280 150.3 320 133.7 360 134.3C400 135 440 153 480 160.5C520 168 560 165 600 156.8C640 148.7 680 135.3 720 133C760 130.7 800 139.3 840 143.5C880 147.7 920 147.3 940 147.2L960 147L960 0L940 0C920 0 880 0 840 0C800 0 760 0 720 0C680 0 640 0 600 0C560 0 520 0 480 0C440 0 400 0 360 0C320 0 280 0 240 0C200 0 160 0 120 0C80 0 40 0 20 0L0 0Z" fill="#f5b5fc"></path><path d="M0 141L20 141.8C40 142.7 80 144.3 120 146.2C160 148 200 150 240 144.5C280 139 320 126 360 124.8C400 123.7 440 134.3 480 137.7C520 141 560 137 600 133.7C640 130.3 680 127.7 720 131C760 134.3 800 143.7 840 149.3C880 155 920 157 940 158L960 159L960 0L940 0C920 0 880 0 840 0C800 0 760 0 720 0C680 0 640 0 600 0C560 0 520 0 480 0C440 0 400 0 360 0C320 0 280 0 240 0C200 0 160 0 120 0C80 0 40 0 20 0L0 0Z" fill="#e5a4e2"></path><path d="M0 119L20 114C40 109 80 99 120 98.3C160 97.7 200 106.3 240 108.7C280 111 320 107 360 109.7C400 112.3 440 121.7 480 126.8C520 132 560 133 600 129.3C640 125.7 680 117.3 720 117.7C760 118 800 127 840 126.7C880 126.3 920 116.7 940 111.8L960 107L960 0L940 0C920 0 880 0 840 0C800 0 760 0 720 0C680 0 640 0 600 0C560 0 520 0 480 0C440 0 400 0 360 0C320 0 280 0 240 0C200 0 160 0 120 0C80 0 40 0 20 0L0 0Z" fill="#d393c9"></path><path d="M0 98L20 93.8C40 89.7 80 81.3 120 84.7C160 88 200 103 240 106.7C280 110.3 320 102.7 360 100.3C400 98 440 101 480 102.8C520 104.7 560 105.3 600 102.8C640 100.3 680 94.7 720 89.3C760 84 800 79 840 78.2C880 77.3 920 80.7 940 82.3L960 84L960 0L940 0C920 0 880 0 840 0C800 0 760 0 720 0C680 0 640 0 600 0C560 0 520 0 480 0C440 0 400 0 360 0C320 0 280 0 240 0C200 0 160 0 120 0C80 0 40 0 20 0L0 0Z" fill="#c184b1"></path><path d="M0 64L20 67.7C40 71.3 80 78.7 120 81.2C160 83.7 200 81.3 240 76.5C280 71.7 320 64.3 360 61.8C400 59.3 440 61.7 480 67.8C520 74 560 84 600 89.2C640 94.3 680 94.7 720 94.5C760 94.3 800 93.7 840 91C880 88.3 920 83.7 940 81.3L960 79L960 0L940 0C920 0 880 0 840 0C800 0 760 0 720 0C680 0 640 0 600 0C560 0 520 0 480 0C440 0 400 0 360 0C320 0 280 0 240 0C200 0 160 0 120 0C80 0 40 0 20 0L0 0Z" fill="#af759a"></path><path d="M0 66L20 63.7C40 61.3 80 56.7 120 52.8C160 49 200 46 240 48.8C280 51.7 320 60.3 360 63.3C400 66.3 440 63.7 480 59C520 54.3 560 47.7 600 45.2C640 42.7 680 44.3 720 48.3C760 52.3 800 58.7 840 60.5C880 62.3 920 59.7 940 58.3L960 57L960 0L940 0C920 0 880 0 840 0C800 0 760 0 720 0C680 0 640 0 600 0C560 0 520 0 480 0C440 0 400 0 360 0C320 0 280 0 240 0C200 0 160 0 120 0C80 0 40 0 20 0L0 0Z" fill="#9c6684"></path><path d="M0 39L20 39C40 39 80 39 120 38.8C160 38.7 200 38.3 240 38C280 37.7 320 37.3 360 36.5C400 35.7 440 34.3 480 37.5C520 40.7 560 48.3 600 49.5C640 50.7 680 45.3 720 42.5C760 39.7 800 39.3 840 41.5C880 43.7 920 48.3 940 50.7L960 53L960 0L940 0C920 0 880 0 840 0C800 0 760 0 720 0C680 0 640 0 600 0C560 0 520 0 480 0C440 0 400 0 360 0C320 0 280 0 240 0C200 0 160 0 120 0C80 0 40 0 20 0L0 0Z" fill="#885870"></path><path d="M0 11L20 13.5C40 16 80 21 120 24.5C160 28 200 30 240 30.2C280 30.3 320 28.7 360 28C400 27.3 440 27.7 480 27.3C520 27 560 26 600 24C640 22 680 19 720 18.2C760 17.3 800 18.7 840 21.5C880 24.3 920 28.7 940 30.8L960 33L960 0L940 0C920 0 880 0 840 0C800 0 760 0 720 0C680 0 640 0 600 0C560 0 520 0 480 0C440 0 400 0 360 0C320 0 280 0 240 0C200 0 160 0 120 0C80 0 40 0 20 0L0 0Z" fill="#754b5d"></path></svg>