<svg id="visual" viewBox="0 0 960 540" width="960" height="540" xmlns="http://www.w3.org/2000/svg" xmlns:xlink="http://www.w3.org/1999/xlink" version="1.1"><path d="M0 407L7 410.5C14 414 28 421 41.8 429.2C55.7 437.3 69.3 446.7 83.2 445C97 443.3 111 430.7 125 426.2C139 421.7 153 425.3 167 421.2C181 417 195 405 208.8 413.7C222.7 422.3 236.3 451.7 250.2 451.5C264 451.3 278 421.7 292 406.5C306 391.3 320 390.7 334 385.3C348 380 362 370 375.8 382C389.7 394 403.3 428 417.2 423.5C431 419 445 376 459 360.3C473 344.7 487 356.3 501 364.8C515 373.3 529 378.7 542.8 383.2C556.7 387.7 570.3 391.3 584.2 403.2C598 415 612 435 626 444.5C640 454 654 453 668 453.2C682 453.3 696 454.7 709.8 435C723.7 415.3 737.3 374.7 751.2 367C765 359.3 779 384.7 793 394.5C807 404.3 821 398.7 835 410.7C849 422.7 863 452.3 876.8 444.8C890.7 437.3 904.3 392.7 918.2 373.3C932 354 946 360 953 363L960 366" fill="none" stroke-linecap="round" stroke-linejoin="miter" stroke="#c484b4" stroke-width="40"></path></svg>