<svg id="visual" viewBox="0 0 960 540" width="960" height="540" xmlns="http://www.w3.org/2000/svg" xmlns:xlink="http://www.w3.org/1999/xlink" version="1.1"><path d="M0 145L48 145L48 82L96 82L96 133L144 133L144 131L192 131L192 129L240 129L240 88L288 88L288 75L336 75L336 74L384 74L384 115L432 115L432 94L480 94L480 145L528 145L528 92L576 92L576 88L624 88L624 128L672 128L672 99L720 99L720 119L768 119L768 139L816 139L816 119L864 119L864 118L912 118L912 100L960 100L960 120L960 0L960 0L912 0L912 0L864 0L864 0L816 0L816 0L768 0L768 0L720 0L720 0L672 0L672 0L624 0L624 0L576 0L576 0L528 0L528 0L480 0L480 0L432 0L432 0L384 0L384 0L336 0L336 0L288 0L288 0L240 0L240 0L192 0L192 0L144 0L144 0L96 0L96 0L48 0L48 0L0 0Z" fill="#d2e0db"></path><path d="M0 69L48 69L48 74L96 74L96 91L144 91L144 104L192 104L192 69L240 69L240 71L288 71L288 64L336 64L336 88L384 88L384 94L432 94L432 68L480 68L480 55L528 55L528 58L576 58L576 99L624 99L624 91L672 91L672 84L720 84L720 76L768 76L768 86L816 86L816 61L864 61L864 104L912 104L912 105L960 105L960 53L960 0L960 0L912 0L912 0L864 0L864 0L816 0L816 0L768 0L768 0L720 0L720 0L672 0L672 0L624 0L624 0L576 0L576 0L528 0L528 0L480 0L480 0L432 0L432 0L384 0L384 0L336 0L336 0L288 0L288 0L240 0L240 0L192 0L192 0L144 0L144 0L96 0L96 0L48 0L48 0L0 0Z" fill="#b1cebb"></path><path d="M0 77L48 77L48 50L96 50L96 64L144 64L144 34L192 34L192 54L240 54L240 39L288 39L288 45L336 45L336 38L384 38L384 76L432 76L432 56L480 56L480 60L528 60L528 44L576 44L576 40L624 40L624 47L672 47L672 65L720 65L720 60L768 60L768 44L816 44L816 37L864 37L864 76L912 76L912 45L960 45L960 60L960 0L960 0L912 0L912 0L864 0L864 0L816 0L816 0L768 0L768 0L720 0L720 0L672 0L672 0L624 0L624 0L576 0L576 0L528 0L528 0L480 0L480 0L432 0L432 0L384 0L384 0L336 0L336 0L288 0L288 0L240 0L240 0L192 0L192 0L144 0L144 0L96 0L96 0L48 0L48 0L0 0Z" fill="#9abb95"></path><path d="M0 10L48 10L48 39L96 39L96 35L144 35L144 11L192 11L192 29L240 29L240 31L288 31L288 20L336 20L336 41L384 41L384 16L432 16L432 16L480 16L480 49L528 49L528 24L576 24L576 36L624 36L624 42L672 42L672 29L720 29L720 37L768 37L768 14L816 14L816 14L864 14L864 39L912 39L912 28L960 28L960 50L960 0L960 0L912 0L912 0L864 0L864 0L816 0L816 0L768 0L768 0L720 0L720 0L672 0L672 0L624 0L624 0L576 0L576 0L528 0L528 0L480 0L480 0L432 0L432 0L384 0L384 0L336 0L336 0L288 0L288 0L240 0L240 0L192 0L192 0L144 0L144 0L96 0L96 0L48 0L48 0L0 0Z" fill="#8da56c"></path></svg>