<svg id="visual" viewBox="0 0 960 540" width="960" height="540" xmlns="http://www.w3.org/2000/svg" xmlns:xlink="http://www.w3.org/1999/xlink" version="1.1"><path d="M0 393L48 393L48 456L96 456L96 405L144 405L144 407L192 407L192 409L240 409L240 450L288 450L288 463L336 463L336 464L384 464L384 423L432 423L432 444L480 444L480 393L528 393L528 446L576 446L576 450L624 450L624 410L672 410L672 439L720 439L720 419L768 419L768 399L816 399L816 419L864 419L864 420L912 420L912 438L960 438L960 418L960 541L960 541L912 541L912 541L864 541L864 541L816 541L816 541L768 541L768 541L720 541L720 541L672 541L672 541L624 541L624 541L576 541L576 541L528 541L528 541L480 541L480 541L432 541L432 541L384 541L384 541L336 541L336 541L288 541L288 541L240 541L240 541L192 541L192 541L144 541L144 541L96 541L96 541L48 541L48 541L0 541Z" fill="#d2e0db"></path><path d="M0 469L48 469L48 464L96 464L96 447L144 447L144 434L192 434L192 469L240 469L240 467L288 467L288 474L336 474L336 450L384 450L384 444L432 444L432 470L480 470L480 483L528 483L528 480L576 480L576 439L624 439L624 447L672 447L672 454L720 454L720 462L768 462L768 452L816 452L816 477L864 477L864 434L912 434L912 433L960 433L960 485L960 541L960 541L912 541L912 541L864 541L864 541L816 541L816 541L768 541L768 541L720 541L720 541L672 541L672 541L624 541L624 541L576 541L576 541L528 541L528 541L480 541L480 541L432 541L432 541L384 541L384 541L336 541L336 541L288 541L288 541L240 541L240 541L192 541L192 541L144 541L144 541L96 541L96 541L48 541L48 541L0 541Z" fill="#b1cebb"></path><path d="M0 461L48 461L48 488L96 488L96 474L144 474L144 504L192 504L192 484L240 484L240 499L288 499L288 493L336 493L336 500L384 500L384 462L432 462L432 482L480 482L480 478L528 478L528 494L576 494L576 498L624 498L624 491L672 491L672 473L720 473L720 478L768 478L768 494L816 494L816 501L864 501L864 462L912 462L912 493L960 493L960 478L960 541L960 541L912 541L912 541L864 541L864 541L816 541L816 541L768 541L768 541L720 541L720 541L672 541L672 541L624 541L624 541L576 541L576 541L528 541L528 541L480 541L480 541L432 541L432 541L384 541L384 541L336 541L336 541L288 541L288 541L240 541L240 541L192 541L192 541L144 541L144 541L96 541L96 541L48 541L48 541L0 541Z" fill="#9abb95"></path><path d="M0 528L48 528L48 499L96 499L96 503L144 503L144 527L192 527L192 509L240 509L240 507L288 507L288 518L336 518L336 497L384 497L384 522L432 522L432 522L480 522L480 489L528 489L528 514L576 514L576 502L624 502L624 496L672 496L672 509L720 509L720 501L768 501L768 524L816 524L816 524L864 524L864 499L912 499L912 510L960 510L960 488L960 541L960 541L912 541L912 541L864 541L864 541L816 541L816 541L768 541L768 541L720 541L720 541L672 541L672 541L624 541L624 541L576 541L576 541L528 541L528 541L480 541L480 541L432 541L432 541L384 541L384 541L336 541L336 541L288 541L288 541L240 541L240 541L192 541L192 541L144 541L144 541L96 541L96 541L48 541L48 541L0 541Z" fill="#8da56c"></path></svg>