<svg id="visual" viewBox="0 0 960 540" width="960" height="540" xmlns="http://www.w3.org/2000/svg" xmlns:xlink="http://www.w3.org/1999/xlink" version="1.1"><path d="M0 151L16 155.2C32 159.3 64 167.7 96 169C128 170.3 160 164.7 192 159.7C224 154.7 256 150.3 288 147.7C320 145 352 144 384 147.3C416 150.7 448 158.3 480 161.7C512 165 544 164 576 159.8C608 155.7 640 148.3 672 147C704 145.7 736 150.3 768 151.7C800 153 832 151 864 149.2C896 147.3 928 145.7 944 144.8L960 144L960 0L944 0C928 0 896 0 864 0C832 0 800 0 768 0C736 0 704 0 672 0C640 0 608 0 576 0C544 0 512 0 480 0C448 0 416 0 384 0C352 0 320 0 288 0C256 0 224 0 192 0C160 0 128 0 96 0C64 0 32 0 16 0L0 0Z" fill="#d2e0db"></path><path d="M0 110L16 111.3C32 112.7 64 115.3 96 120.3C128 125.3 160 132.7 192 128.8C224 125 256 110 288 103C320 96 352 97 384 102C416 107 448 116 480 123.5C512 131 544 137 576 130.7C608 124.3 640 105.7 672 98.7C704 91.7 736 96.3 768 101.3C800 106.3 832 111.7 864 115.8C896 120 928 123 944 124.5L960 126L960 0L944 0C928 0 896 0 864 0C832 0 800 0 768 0C736 0 704 0 672 0C640 0 608 0 576 0C544 0 512 0 480 0C448 0 416 0 384 0C352 0 320 0 288 0C256 0 224 0 192 0C160 0 128 0 96 0C64 0 32 0 16 0L0 0Z" fill="#b8d3c4"></path><path d="M0 94L16 93.2C32 92.3 64 90.7 96 93.7C128 96.7 160 104.3 192 107.2C224 110 256 108 288 104.3C320 100.7 352 95.3 384 89.5C416 83.7 448 77.3 480 79.8C512 82.3 544 93.7 576 101.2C608 108.7 640 112.3 672 108.3C704 104.3 736 92.7 768 87.7C800 82.7 832 84.3 864 84.5C896 84.7 928 83.3 944 82.7L960 82L960 0L944 0C928 0 896 0 864 0C832 0 800 0 768 0C736 0 704 0 672 0C640 0 608 0 576 0C544 0 512 0 480 0C448 0 416 0 384 0C352 0 320 0 288 0C256 0 224 0 192 0C160 0 128 0 96 0C64 0 32 0 16 0L0 0Z" fill="#a4c5a9"></path><path d="M0 75L16 75C32 75 64 75 96 75.8C128 76.7 160 78.3 192 77.7C224 77 256 74 288 69.3C320 64.7 352 58.3 384 56.2C416 54 448 56 480 54.2C512 52.3 544 46.7 576 45.3C608 44 640 47 672 51.5C704 56 736 62 768 60.7C800 59.3 832 50.7 864 51.7C896 52.7 928 63.3 944 68.7L960 74L960 0L944 0C928 0 896 0 864 0C832 0 800 0 768 0C736 0 704 0 672 0C640 0 608 0 576 0C544 0 512 0 480 0C448 0 416 0 384 0C352 0 320 0 288 0C256 0 224 0 192 0C160 0 128 0 96 0C64 0 32 0 16 0L0 0Z" fill="#96b68b"></path><path d="M0 21L16 25.3C32 29.7 64 38.3 96 43.3C128 48.3 160 49.7 192 50.7C224 51.7 256 52.3 288 47.2C320 42 352 31 384 25.2C416 19.3 448 18.7 480 20.3C512 22 544 26 576 31C608 36 640 42 672 44.5C704 47 736 46 768 43C800 40 832 35 864 32C896 29 928 28 944 27.5L960 27L960 0L944 0C928 0 896 0 864 0C832 0 800 0 768 0C736 0 704 0 672 0C640 0 608 0 576 0C544 0 512 0 480 0C448 0 416 0 384 0C352 0 320 0 288 0C256 0 224 0 192 0C160 0 128 0 96 0C64 0 32 0 16 0L0 0Z" fill="#8da56c"></path></svg>