<svg id="visual" viewBox="0 0 960 540" width="960" height="540" xmlns="http://www.w3.org/2000/svg" xmlns:xlink="http://www.w3.org/1999/xlink" version="1.1"><path d="M0 157L26.7 158.2C53.3 159.3 106.7 161.7 160 153.5C213.3 145.3 266.7 126.7 320 124.5C373.3 122.3 426.7 136.7 480 138.5C533.3 140.3 586.7 129.7 640 129.7C693.3 129.7 746.7 140.3 800 142.8C853.3 145.3 906.7 139.7 933.3 136.8L960 134L960 0L933.3 0C906.7 0 853.3 0 800 0C746.7 0 693.3 0 640 0C586.7 0 533.3 0 480 0C426.7 0 373.3 0 320 0C266.7 0 213.3 0 160 0C106.7 0 53.3 0 26.7 0L0 0Z" fill="#ffffff"></path><path d="M0 122L26.7 125C53.3 128 106.7 134 160 134.2C213.3 134.3 266.7 128.7 320 131.2C373.3 133.7 426.7 144.3 480 145.8C533.3 147.3 586.7 139.7 640 138.2C693.3 136.7 746.7 141.3 800 136.7C853.3 132 906.7 118 933.3 111L960 104L960 0L933.3 0C906.7 0 853.3 0 800 0C746.7 0 693.3 0 640 0C586.7 0 533.3 0 480 0C426.7 0 373.3 0 320 0C266.7 0 213.3 0 160 0C106.7 0 53.3 0 26.7 0L0 0Z" fill="#f8fafc"></path><path d="M0 104L26.7 105.8C53.3 107.7 106.7 111.3 160 110C213.3 108.7 266.7 102.3 320 99.2C373.3 96 426.7 96 480 98.5C533.3 101 586.7 106 640 107.7C693.3 109.3 746.7 107.7 800 111.3C853.3 115 906.7 124 933.3 128.5L960 133L960 0L933.3 0C906.7 0 853.3 0 800 0C746.7 0 693.3 0 640 0C586.7 0 533.3 0 480 0C426.7 0 373.3 0 320 0C266.7 0 213.3 0 160 0C106.7 0 53.3 0 26.7 0L0 0Z" fill="#f1f5f8"></path><path d="M0 75L26.7 74.3C53.3 73.7 106.7 72.3 160 76.2C213.3 80 266.7 89 320 88.5C373.3 88 426.7 78 480 75.8C533.3 73.7 586.7 79.3 640 77.8C693.3 76.3 746.7 67.7 800 70.2C853.3 72.7 906.7 86.3 933.3 93.2L960 100L960 0L933.3 0C906.7 0 853.3 0 800 0C746.7 0 693.3 0 640 0C586.7 0 533.3 0 480 0C426.7 0 373.3 0 320 0C266.7 0 213.3 0 160 0C106.7 0 53.3 0 26.7 0L0 0Z" fill="#eaf0f5"></path><path d="M0 82L26.7 76.5C53.3 71 106.7 60 160 55.8C213.3 51.7 266.7 54.3 320 53.8C373.3 53.3 426.7 49.7 480 48.3C533.3 47 586.7 48 640 54.2C693.3 60.3 746.7 71.7 800 74.7C853.3 77.7 906.7 72.3 933.3 69.7L960 67L960 0L933.3 0C906.7 0 853.3 0 800 0C746.7 0 693.3 0 640 0C586.7 0 533.3 0 480 0C426.7 0 373.3 0 320 0C266.7 0 213.3 0 160 0C106.7 0 53.3 0 26.7 0L0 0Z" fill="#e3ebf2"></path><path d="M0 32L26.7 34.8C53.3 37.7 106.7 43.3 160 45.7C213.3 48 266.7 47 320 44.7C373.3 42.3 426.7 38.7 480 37.2C533.3 35.7 586.7 36.3 640 40.2C693.3 44 746.7 51 800 53.3C853.3 55.7 906.7 53.3 933.3 52.2L960 51L960 0L933.3 0C906.7 0 853.3 0 800 0C746.7 0 693.3 0 640 0C586.7 0 533.3 0 480 0C426.7 0 373.3 0 320 0C266.7 0 213.3 0 160 0C106.7 0 53.3 0 26.7 0L0 0Z" fill="#dce6ee"></path><path d="M0 35L26.7 35.3C53.3 35.7 106.7 36.3 160 36C213.3 35.7 266.7 34.3 320 31.8C373.3 29.3 426.7 25.7 480 25.3C533.3 25 586.7 28 640 30.2C693.3 32.3 746.7 33.7 800 35.5C853.3 37.3 906.7 39.7 933.3 40.8L960 42L960 0L933.3 0C906.7 0 853.3 0 800 0C746.7 0 693.3 0 640 0C586.7 0 533.3 0 480 0C426.7 0 373.3 0 320 0C266.7 0 213.3 0 160 0C106.7 0 53.3 0 26.7 0L0 0Z" fill="#d5e1eb"></path></svg>