<svg id="visual" viewBox="0 0 960 540" width="960" height="540" xmlns="http://www.w3.org/2000/svg" xmlns:xlink="http://www.w3.org/1999/xlink" version="1.1"><path d="M0 163L26.7 165.8C53.3 168.7 106.7 174.3 160 167.2C213.3 160 266.7 140 320 133.8C373.3 127.7 426.7 135.3 480 144.3C533.3 153.3 586.7 163.7 640 167.7C693.3 171.7 746.7 169.3 800 161.3C853.3 153.3 906.7 139.7 933.3 132.8L960 126L960 0L933.3 0C906.7 0 853.3 0 800 0C746.7 0 693.3 0 640 0C586.7 0 533.3 0 480 0C426.7 0 373.3 0 320 0C266.7 0 213.3 0 160 0C106.7 0 53.3 0 26.7 0L0 0Z" fill="#ffffff"></path><path d="M0 134L26.7 127C53.3 120 106.7 106 160 105.8C213.3 105.7 266.7 119.3 320 128C373.3 136.7 426.7 140.3 480 143.5C533.3 146.7 586.7 149.3 640 144.3C693.3 139.3 746.7 126.7 800 122.5C853.3 118.3 906.7 122.7 933.3 124.8L960 127L960 0L933.3 0C906.7 0 853.3 0 800 0C746.7 0 693.3 0 640 0C586.7 0 533.3 0 480 0C426.7 0 373.3 0 320 0C266.7 0 213.3 0 160 0C106.7 0 53.3 0 26.7 0L0 0Z" fill="#f8fafc"></path><path d="M0 130L26.7 124.3C53.3 118.7 106.7 107.3 160 99.8C213.3 92.3 266.7 88.7 320 93.2C373.3 97.7 426.7 110.3 480 110.3C533.3 110.3 586.7 97.7 640 91.5C693.3 85.3 746.7 85.7 800 91.2C853.3 96.7 906.7 107.3 933.3 112.7L960 118L960 0L933.3 0C906.7 0 853.3 0 800 0C746.7 0 693.3 0 640 0C586.7 0 533.3 0 480 0C426.7 0 373.3 0 320 0C266.7 0 213.3 0 160 0C106.7 0 53.3 0 26.7 0L0 0Z" fill="#f1f5f8"></path><path d="M0 110L26.7 104.3C53.3 98.7 106.7 87.3 160 81C213.3 74.7 266.7 73.3 320 70.7C373.3 68 426.7 64 480 70.8C533.3 77.7 586.7 95.3 640 97C693.3 98.7 746.7 84.3 800 79.5C853.3 74.7 906.7 79.3 933.3 81.7L960 84L960 0L933.3 0C906.7 0 853.3 0 800 0C746.7 0 693.3 0 640 0C586.7 0 533.3 0 480 0C426.7 0 373.3 0 320 0C266.7 0 213.3 0 160 0C106.7 0 53.3 0 26.7 0L0 0Z" fill="#eaf0f5"></path><path d="M0 87L26.7 84.7C53.3 82.3 106.7 77.7 160 76.7C213.3 75.7 266.7 78.3 320 77.7C373.3 77 426.7 73 480 68.7C533.3 64.3 586.7 59.7 640 61.8C693.3 64 746.7 73 800 71.7C853.3 70.3 906.7 58.7 933.3 52.8L960 47L960 0L933.3 0C906.7 0 853.3 0 800 0C746.7 0 693.3 0 640 0C586.7 0 533.3 0 480 0C426.7 0 373.3 0 320 0C266.7 0 213.3 0 160 0C106.7 0 53.3 0 26.7 0L0 0Z" fill="#e3ebf2"></path><path d="M0 28L26.7 28.5C53.3 29 106.7 30 160 34.8C213.3 39.7 266.7 48.3 320 50.3C373.3 52.3 426.7 47.7 480 43C533.3 38.3 586.7 33.7 640 37.5C693.3 41.3 746.7 53.7 800 57C853.3 60.3 906.7 54.7 933.3 51.8L960 49L960 0L933.3 0C906.7 0 853.3 0 800 0C746.7 0 693.3 0 640 0C586.7 0 533.3 0 480 0C426.7 0 373.3 0 320 0C266.7 0 213.3 0 160 0C106.7 0 53.3 0 26.7 0L0 0Z" fill="#dce6ee"></path><path d="M0 41L26.7 40.5C53.3 40 106.7 39 160 37C213.3 35 266.7 32 320 31.8C373.3 31.7 426.7 34.3 480 31.2C533.3 28 586.7 19 640 16.8C693.3 14.7 746.7 19.3 800 24.5C853.3 29.7 906.7 35.3 933.3 38.2L960 41L960 0L933.3 0C906.7 0 853.3 0 800 0C746.7 0 693.3 0 640 0C586.7 0 533.3 0 480 0C426.7 0 373.3 0 320 0C266.7 0 213.3 0 160 0C106.7 0 53.3 0 26.7 0L0 0Z" fill="#d5e1eb"></path></svg>