<svg id="visual" viewBox="0 0 960 540" width="960" height="540" xmlns="http://www.w3.org/2000/svg" xmlns:xlink="http://www.w3.org/1999/xlink" version="1.1"><path d="M0 186L26.7 183.7C53.3 181.3 106.7 176.7 160 164.2C213.3 151.7 266.7 131.3 320 129.2C373.3 127 426.7 143 480 146.2C533.3 149.3 586.7 139.7 640 138.7C693.3 137.7 746.7 145.3 800 148.5C853.3 151.7 906.7 150.3 933.3 149.7L960 149L960 0L933.3 0C906.7 0 853.3 0 800 0C746.7 0 693.3 0 640 0C586.7 0 533.3 0 480 0C426.7 0 373.3 0 320 0C266.7 0 213.3 0 160 0C106.7 0 53.3 0 26.7 0L0 0Z" fill="#ffffff"></path><path d="M0 101L26.7 109.5C53.3 118 106.7 135 160 141C213.3 147 266.7 142 320 136.7C373.3 131.3 426.7 125.7 480 118C533.3 110.3 586.7 100.7 640 105.3C693.3 110 746.7 129 800 132.3C853.3 135.7 906.7 123.3 933.3 117.2L960 111L960 0L933.3 0C906.7 0 853.3 0 800 0C746.7 0 693.3 0 640 0C586.7 0 533.3 0 480 0C426.7 0 373.3 0 320 0C266.7 0 213.3 0 160 0C106.7 0 53.3 0 26.7 0L0 0Z" fill="#f8fafc"></path><path d="M0 76L26.7 84.3C53.3 92.7 106.7 109.3 160 114.2C213.3 119 266.7 112 320 106C373.3 100 426.7 95 480 91.2C533.3 87.3 586.7 84.7 640 83.2C693.3 81.7 746.7 81.3 800 86.8C853.3 92.3 906.7 103.7 933.3 109.3L960 115L960 0L933.3 0C906.7 0 853.3 0 800 0C746.7 0 693.3 0 640 0C586.7 0 533.3 0 480 0C426.7 0 373.3 0 320 0C266.7 0 213.3 0 160 0C106.7 0 53.3 0 26.7 0L0 0Z" fill="#f1f5f8"></path><path d="M0 85L26.7 85.7C53.3 86.3 106.7 87.7 160 88.7C213.3 89.7 266.7 90.3 320 90.3C373.3 90.3 426.7 89.7 480 84.5C533.3 79.3 586.7 69.7 640 70.8C693.3 72 746.7 84 800 87.7C853.3 91.3 906.7 86.7 933.3 84.3L960 82L960 0L933.3 0C906.7 0 853.3 0 800 0C746.7 0 693.3 0 640 0C586.7 0 533.3 0 480 0C426.7 0 373.3 0 320 0C266.7 0 213.3 0 160 0C106.7 0 53.3 0 26.7 0L0 0Z" fill="#eaf0f5"></path><path d="M0 44L26.7 49C53.3 54 106.7 64 160 66C213.3 68 266.7 62 320 59.7C373.3 57.3 426.7 58.7 480 58C533.3 57.3 586.7 54.7 640 51.8C693.3 49 746.7 46 800 48.5C853.3 51 906.7 59 933.3 63L960 67L960 0L933.3 0C906.7 0 853.3 0 800 0C746.7 0 693.3 0 640 0C586.7 0 533.3 0 480 0C426.7 0 373.3 0 320 0C266.7 0 213.3 0 160 0C106.7 0 53.3 0 26.7 0L0 0Z" fill="#e3ebf2"></path><path d="M0 50L26.7 47.8C53.3 45.7 106.7 41.3 160 39.8C213.3 38.3 266.7 39.7 320 44.5C373.3 49.3 426.7 57.7 480 59C533.3 60.3 586.7 54.7 640 48.2C693.3 41.7 746.7 34.3 800 32.5C853.3 30.7 906.7 34.3 933.3 36.2L960 38L960 0L933.3 0C906.7 0 853.3 0 800 0C746.7 0 693.3 0 640 0C586.7 0 533.3 0 480 0C426.7 0 373.3 0 320 0C266.7 0 213.3 0 160 0C106.7 0 53.3 0 26.7 0L0 0Z" fill="#dce6ee"></path><path d="M0 29L26.7 31.2C53.3 33.3 106.7 37.7 160 36.3C213.3 35 266.7 28 320 27.8C373.3 27.7 426.7 34.3 480 33.2C533.3 32 586.7 23 640 19.3C693.3 15.7 746.7 17.3 800 18.8C853.3 20.3 906.7 21.7 933.3 22.3L960 23L960 0L933.3 0C906.7 0 853.3 0 800 0C746.7 0 693.3 0 640 0C586.7 0 533.3 0 480 0C426.7 0 373.3 0 320 0C266.7 0 213.3 0 160 0C106.7 0 53.3 0 26.7 0L0 0Z" fill="#d5e1eb"></path></svg>