<svg id="visual" viewBox="0 0 960 540" width="960" height="540" xmlns="http://www.w3.org/2000/svg" xmlns:xlink="http://www.w3.org/1999/xlink" version="1.1"><path d="M0 108L26.7 115.2C53.3 122.3 106.7 136.7 160 149.5C213.3 162.3 266.7 173.7 320 166.8C373.3 160 426.7 135 480 131.7C533.3 128.3 586.7 146.7 640 157.7C693.3 168.7 746.7 172.3 800 172.5C853.3 172.7 906.7 169.3 933.3 167.7L960 166L960 0L933.3 0C906.7 0 853.3 0 800 0C746.7 0 693.3 0 640 0C586.7 0 533.3 0 480 0C426.7 0 373.3 0 320 0C266.7 0 213.3 0 160 0C106.7 0 53.3 0 26.7 0L0 0Z" fill="#ffffff"></path><path d="M0 160L26.7 153C53.3 146 106.7 132 160 128.2C213.3 124.3 266.7 130.7 320 132.5C373.3 134.3 426.7 131.7 480 128.3C533.3 125 586.7 121 640 117.2C693.3 113.3 746.7 109.7 800 106.3C853.3 103 906.7 100 933.3 98.5L960 97L960 0L933.3 0C906.7 0 853.3 0 800 0C746.7 0 693.3 0 640 0C586.7 0 533.3 0 480 0C426.7 0 373.3 0 320 0C266.7 0 213.3 0 160 0C106.7 0 53.3 0 26.7 0L0 0Z" fill="#f8fafc"></path><path d="M0 133L26.7 123.7C53.3 114.3 106.7 95.7 160 88.3C213.3 81 266.7 85 320 93.7C373.3 102.3 426.7 115.7 480 119.5C533.3 123.3 586.7 117.7 640 117.3C693.3 117 746.7 122 800 117.3C853.3 112.7 906.7 98.3 933.3 91.2L960 84L960 0L933.3 0C906.7 0 853.3 0 800 0C746.7 0 693.3 0 640 0C586.7 0 533.3 0 480 0C426.7 0 373.3 0 320 0C266.7 0 213.3 0 160 0C106.7 0 53.3 0 26.7 0L0 0Z" fill="#f1f5f8"></path><path d="M0 74L26.7 77.3C53.3 80.7 106.7 87.3 160 94.2C213.3 101 266.7 108 320 105.3C373.3 102.7 426.7 90.3 480 88.3C533.3 86.3 586.7 94.7 640 96.3C693.3 98 746.7 93 800 94.2C853.3 95.3 906.7 102.7 933.3 106.3L960 110L960 0L933.3 0C906.7 0 853.3 0 800 0C746.7 0 693.3 0 640 0C586.7 0 533.3 0 480 0C426.7 0 373.3 0 320 0C266.7 0 213.3 0 160 0C106.7 0 53.3 0 26.7 0L0 0Z" fill="#eaf0f5"></path><path d="M0 49L26.7 54.5C53.3 60 106.7 71 160 73C213.3 75 266.7 68 320 67.2C373.3 66.3 426.7 71.7 480 76C533.3 80.3 586.7 83.7 640 79.2C693.3 74.7 746.7 62.3 800 57.7C853.3 53 906.7 56 933.3 57.5L960 59L960 0L933.3 0C906.7 0 853.3 0 800 0C746.7 0 693.3 0 640 0C586.7 0 533.3 0 480 0C426.7 0 373.3 0 320 0C266.7 0 213.3 0 160 0C106.7 0 53.3 0 26.7 0L0 0Z" fill="#e3ebf2"></path><path d="M0 41L26.7 42.3C53.3 43.7 106.7 46.3 160 47.3C213.3 48.3 266.7 47.7 320 46.5C373.3 45.3 426.7 43.7 480 42C533.3 40.3 586.7 38.7 640 41.3C693.3 44 746.7 51 800 51.3C853.3 51.7 906.7 45.3 933.3 42.2L960 39L960 0L933.3 0C906.7 0 853.3 0 800 0C746.7 0 693.3 0 640 0C586.7 0 533.3 0 480 0C426.7 0 373.3 0 320 0C266.7 0 213.3 0 160 0C106.7 0 53.3 0 26.7 0L0 0Z" fill="#dce6ee"></path><path d="M0 12L26.7 14C53.3 16 106.7 20 160 20.2C213.3 20.3 266.7 16.7 320 18.2C373.3 19.7 426.7 26.3 480 28.2C533.3 30 586.7 27 640 28.2C693.3 29.3 746.7 34.7 800 34.7C853.3 34.7 906.7 29.3 933.3 26.7L960 24L960 0L933.3 0C906.7 0 853.3 0 800 0C746.7 0 693.3 0 640 0C586.7 0 533.3 0 480 0C426.7 0 373.3 0 320 0C266.7 0 213.3 0 160 0C106.7 0 53.3 0 26.7 0L0 0Z" fill="#d5e1eb"></path></svg>