<svg id="visual" viewBox="0 0 960 540" width="960" height="540" xmlns="http://www.w3.org/2000/svg" xmlns:xlink="http://www.w3.org/1999/xlink" version="1.1"><path d="M0 55L74 60L148 55L222 55L295 55L369 60L443 55L517 55L591 55L665 50L738 60L812 55L886 55L960 60L960 0L886 0L812 0L738 0L665 0L591 0L517 0L443 0L369 0L295 0L222 0L148 0L74 0L0 0Z" fill="#8da56c"></path><path d="M0 82L74 87L148 82L222 82L295 82L369 87L443 82L517 82L591 82L665 77L738 87L812 82L886 82L960 87L960 58L886 53L812 53L738 58L665 48L591 53L517 53L443 53L369 58L295 53L222 53L148 53L74 58L0 53Z" fill="#99b993"></path><path d="M0 114L74 120L148 114L222 114L295 114L369 120L443 114L517 114L591 114L665 109L738 120L812 114L886 114L960 120L960 85L886 80L812 80L738 85L665 75L591 80L517 80L443 80L369 85L295 80L222 80L148 80L74 85L0 80Z" fill="#adccb7"></path><path d="M0 249L74 228L148 239L222 239L295 239L369 244L443 228L517 228L591 249L665 239L738 233L812 233L886 239L960 249L960 118L886 112L812 112L738 118L665 107L591 112L517 112L443 112L369 118L295 112L222 112L148 112L74 118L0 112Z" fill="#cbddd6"></path><path d="M0 357L74 347L148 352L222 352L295 357L369 347L443 347L517 352L591 352L665 336L738 347L812 347L886 347L960 347L960 247L886 237L812 231L738 231L665 237L591 247L517 226L443 226L369 242L295 237L222 237L148 237L74 226L0 247Z" fill="#d2e0db"></path><path d="M0 395L74 384L148 390L222 390L295 395L369 384L443 390L517 390L591 395L665 379L738 384L812 384L886 384L960 390L960 345L886 345L812 345L738 345L665 334L591 350L517 350L443 345L369 345L295 355L222 350L148 350L74 345L0 355Z" fill="#cbddd6"></path><path d="M0 460L74 455L148 460L222 460L295 460L369 455L443 465L517 460L591 465L665 455L738 460L812 460L886 460L960 460L960 388L886 382L812 382L738 382L665 377L591 393L517 388L443 388L369 382L295 393L222 388L148 388L74 382L0 393Z" fill="#adccb7"></path><path d="M0 503L74 503L148 503L222 509L295 509L369 503L443 509L517 509L591 509L665 503L738 509L812 509L886 503L960 509L960 458L886 458L812 458L738 458L665 453L591 463L517 458L443 463L369 453L295 458L222 458L148 458L74 453L0 458Z" fill="#99b993"></path><path d="M0 541L74 541L148 541L222 541L295 541L369 541L443 541L517 541L591 541L665 541L738 541L812 541L886 541L960 541L960 507L886 501L812 507L738 507L665 501L591 507L517 507L443 507L369 501L295 507L222 507L148 501L74 501L0 501Z" fill="#8da56c"></path></svg>