<svg id="visual" viewBox="0 0 960 540" width="960" height="540" xmlns="http://www.w3.org/2000/svg" xmlns:xlink="http://www.w3.org/1999/xlink" version="1.1"><path d="M0 363L12.3 369.7C24.7 376.3 49.3 389.7 74 396.3C98.7 403 123.3 403 148 403.8C172.7 404.7 197.3 406.3 221.8 402C246.3 397.7 270.7 387.3 295.2 379.2C319.7 371 344.3 365 369 372.8C393.7 380.7 418.3 402.3 443 405C467.7 407.7 492.3 391.3 517 382.8C541.7 374.3 566.3 373.7 591 378.5C615.7 383.3 640.3 393.7 664.8 397.5C689.3 401.3 713.7 398.7 738.2 401.8C762.7 405 787.3 414 812 416.7C836.7 419.3 861.3 415.7 886 405.5C910.7 395.3 935.3 378.7 947.7 370.3L960 362L960 541L947.7 541C935.3 541 910.7 541 886 541C861.3 541 836.7 541 812 541C787.3 541 762.7 541 738.2 541C713.7 541 689.3 541 664.8 541C640.3 541 615.7 541 591 541C566.3 541 541.7 541 517 541C492.3 541 467.7 541 443 541C418.3 541 393.7 541 369 541C344.3 541 319.7 541 295.2 541C270.7 541 246.3 541 221.8 541C197.3 541 172.7 541 148 541C123.3 541 98.7 541 74 541C49.3 541 24.7 541 12.3 541L0 541Z" fill="#d2e0db"></path><path d="M0 399L12.3 400C24.7 401 49.3 403 74 403.3C98.7 403.7 123.3 402.3 148 399.5C172.7 396.7 197.3 392.3 221.8 395C246.3 397.7 270.7 407.3 295.2 409.7C319.7 412 344.3 407 369 410.8C393.7 414.7 418.3 427.3 443 429.8C467.7 432.3 492.3 424.7 517 421.2C541.7 417.7 566.3 418.3 591 423.2C615.7 428 640.3 437 664.8 438.8C689.3 440.7 713.7 435.3 738.2 432.5C762.7 429.7 787.3 429.3 812 424C836.7 418.7 861.3 408.3 886 407.3C910.7 406.3 935.3 414.7 947.7 418.8L960 423L960 541L947.7 541C935.3 541 910.7 541 886 541C861.3 541 836.7 541 812 541C787.3 541 762.7 541 738.2 541C713.7 541 689.3 541 664.8 541C640.3 541 615.7 541 591 541C566.3 541 541.7 541 517 541C492.3 541 467.7 541 443 541C418.3 541 393.7 541 369 541C344.3 541 319.7 541 295.2 541C270.7 541 246.3 541 221.8 541C197.3 541 172.7 541 148 541C123.3 541 98.7 541 74 541C49.3 541 24.7 541 12.3 541L0 541Z" fill="#bdd6c9"></path><path d="M0 427L12.3 426C24.7 425 49.3 423 74 426.5C98.7 430 123.3 439 148 445C172.7 451 197.3 454 221.8 452.5C246.3 451 270.7 445 295.2 439.2C319.7 433.3 344.3 427.7 369 428.3C393.7 429 418.3 436 443 441.2C467.7 446.3 492.3 449.7 517 445.3C541.7 441 566.3 429 591 424.2C615.7 419.3 640.3 421.7 664.8 422.3C689.3 423 713.7 422 738.2 425.3C762.7 428.7 787.3 436.3 812 439.7C836.7 443 861.3 442 886 443.8C910.7 445.7 935.3 450.3 947.7 452.7L960 455L960 541L947.7 541C935.3 541 910.7 541 886 541C861.3 541 836.7 541 812 541C787.3 541 762.7 541 738.2 541C713.7 541 689.3 541 664.8 541C640.3 541 615.7 541 591 541C566.3 541 541.7 541 517 541C492.3 541 467.7 541 443 541C418.3 541 393.7 541 369 541C344.3 541 319.7 541 295.2 541C270.7 541 246.3 541 221.8 541C197.3 541 172.7 541 148 541C123.3 541 98.7 541 74 541C49.3 541 24.7 541 12.3 541L0 541Z" fill="#abcbb4"></path><path d="M0 446L12.3 447.5C24.7 449 49.3 452 74 454.5C98.7 457 123.3 459 148 458.2C172.7 457.3 197.3 453.7 221.8 451.7C246.3 449.7 270.7 449.3 295.2 448.7C319.7 448 344.3 447 369 447.3C393.7 447.7 418.3 449.3 443 453.2C467.7 457 492.3 463 517 466.2C541.7 469.3 566.3 469.7 591 466.8C615.7 464 640.3 458 664.8 454.8C689.3 451.7 713.7 451.3 738.2 452.5C762.7 453.7 787.3 456.3 812 461.3C836.7 466.3 861.3 473.7 886 474.8C910.7 476 935.3 471 947.7 468.5L960 466L960 541L947.7 541C935.3 541 910.7 541 886 541C861.3 541 836.7 541 812 541C787.3 541 762.7 541 738.2 541C713.7 541 689.3 541 664.8 541C640.3 541 615.7 541 591 541C566.3 541 541.7 541 517 541C492.3 541 467.7 541 443 541C418.3 541 393.7 541 369 541C344.3 541 319.7 541 295.2 541C270.7 541 246.3 541 221.8 541C197.3 541 172.7 541 148 541C123.3 541 98.7 541 74 541C49.3 541 24.7 541 12.3 541L0 541Z" fill="#9ebf9d"></path><path d="M0 502L12.3 497.5C24.7 493 49.3 484 74 479.3C98.7 474.7 123.3 474.3 148 473.8C172.7 473.3 197.3 472.7 221.8 473.3C246.3 474 270.7 476 295.2 481.2C319.7 486.3 344.3 494.7 369 494C393.7 493.3 418.3 483.7 443 482.8C467.7 482 492.3 490 517 490.2C541.7 490.3 566.3 482.7 591 477.5C615.7 472.3 640.3 469.7 664.8 473C689.3 476.3 713.7 485.7 738.2 490.3C762.7 495 787.3 495 812 493.3C836.7 491.7 861.3 488.3 886 487.3C910.7 486.3 935.3 487.7 947.7 488.3L960 489L960 541L947.7 541C935.3 541 910.7 541 886 541C861.3 541 836.7 541 812 541C787.3 541 762.7 541 738.2 541C713.7 541 689.3 541 664.8 541C640.3 541 615.7 541 591 541C566.3 541 541.7 541 517 541C492.3 541 467.7 541 443 541C418.3 541 393.7 541 369 541C344.3 541 319.7 541 295.2 541C270.7 541 246.3 541 221.8 541C197.3 541 172.7 541 148 541C123.3 541 98.7 541 74 541C49.3 541 24.7 541 12.3 541L0 541Z" fill="#94b285"></path><path d="M0 503L12.3 505.3C24.7 507.7 49.3 512.3 74 514.2C98.7 516 123.3 515 148 511.7C172.7 508.3 197.3 502.7 221.8 502.8C246.3 503 270.7 509 295.2 510.7C319.7 512.3 344.3 509.7 369 507C393.7 504.3 418.3 501.7 443 502.5C467.7 503.3 492.3 507.7 517 507C541.7 506.3 566.3 500.7 591 499C615.7 497.3 640.3 499.7 664.8 500.5C689.3 501.3 713.7 500.7 738.2 500.5C762.7 500.3 787.3 500.7 812 502C836.7 503.3 861.3 505.7 886 505.3C910.7 505 935.3 502 947.7 500.5L960 499L960 541L947.7 541C935.3 541 910.7 541 886 541C861.3 541 836.7 541 812 541C787.3 541 762.7 541 738.2 541C713.7 541 689.3 541 664.8 541C640.3 541 615.7 541 591 541C566.3 541 541.7 541 517 541C492.3 541 467.7 541 443 541C418.3 541 393.7 541 369 541C344.3 541 319.7 541 295.2 541C270.7 541 246.3 541 221.8 541C197.3 541 172.7 541 148 541C123.3 541 98.7 541 74 541C49.3 541 24.7 541 12.3 541L0 541Z" fill="#8da56c"></path></svg>